<mxfile host="app.diagrams.net" modified="2023-05-01T12:44:50.047Z" agent="Mozilla/5.0 (Windows NT 10.0; Win64; x64) AppleWebKit/537.36 (KHTML, like Gecko) Chrome/112.0.0.0 Safari/537.36" etag="aPD5CBmBZKdNCoWK1IKY" version="21.2.3" type="device">
  <diagram name="Page-1" id="fnkV2qCepdyFEAqepjHV">
    <mxGraphModel dx="784" dy="416" grid="1" gridSize="10" guides="1" tooltips="1" connect="1" arrows="1" fold="1" page="1" pageScale="1" pageWidth="827" pageHeight="1169" math="0" shadow="0">
      <root>
        <mxCell id="0" />
        <mxCell id="1" parent="0" />
        <mxCell id="HPqKZyKz4oHkFwGDCJG2-48" value="" style="rounded=0;whiteSpace=wrap;html=1;fillColor=none;fontColor=#333333;strokeColor=#666666;dashed=1;dashPattern=1 4;" parent="1" vertex="1">
          <mxGeometry x="240" y="300" width="510" height="260" as="geometry" />
        </mxCell>
        <mxCell id="HPqKZyKz4oHkFwGDCJG2-45" value="" style="rounded=0;whiteSpace=wrap;html=1;fillColor=none;dashed=1;dashPattern=1 4;" parent="1" vertex="1">
          <mxGeometry x="10" y="240" width="210" height="180" as="geometry" />
        </mxCell>
        <mxCell id="HPqKZyKz4oHkFwGDCJG2-7" style="edgeStyle=orthogonalEdgeStyle;rounded=0;orthogonalLoop=1;jettySize=auto;html=1;exitX=0.5;exitY=0.5;exitDx=0;exitDy=0;exitPerimeter=0;entryX=0.5;entryY=1;entryDx=0;entryDy=0;" parent="1" source="HPqKZyKz4oHkFwGDCJG2-1" target="HPqKZyKz4oHkFwGDCJG2-5" edge="1">
          <mxGeometry relative="1" as="geometry">
            <Array as="points">
              <mxPoint x="135" y="530" />
              <mxPoint x="456" y="530" />
            </Array>
          </mxGeometry>
        </mxCell>
        <mxCell id="HPqKZyKz4oHkFwGDCJG2-8" value="Provides" style="edgeLabel;html=1;align=center;verticalAlign=middle;resizable=0;points=[];" parent="HPqKZyKz4oHkFwGDCJG2-7" vertex="1" connectable="0">
          <mxGeometry x="-0.1849" y="-1" relative="1" as="geometry">
            <mxPoint x="-72" y="-9" as="offset" />
          </mxGeometry>
        </mxCell>
        <mxCell id="HPqKZyKz4oHkFwGDCJG2-9" style="edgeStyle=orthogonalEdgeStyle;rounded=0;orthogonalLoop=1;jettySize=auto;html=1;exitX=0.5;exitY=0.5;exitDx=0;exitDy=0;exitPerimeter=0;entryX=0.54;entryY=0.983;entryDx=0;entryDy=0;entryPerimeter=0;" parent="1" source="HPqKZyKz4oHkFwGDCJG2-1" target="HPqKZyKz4oHkFwGDCJG2-4" edge="1">
          <mxGeometry relative="1" as="geometry">
            <Array as="points">
              <mxPoint x="135" y="530" />
              <mxPoint x="289" y="530" />
            </Array>
          </mxGeometry>
        </mxCell>
        <mxCell id="HPqKZyKz4oHkFwGDCJG2-1" value="User" style="shape=umlActor;verticalLabelPosition=bottom;verticalAlign=top;html=1;outlineConnect=0;" parent="1" vertex="1">
          <mxGeometry x="120" y="490" width="30" height="60" as="geometry" />
        </mxCell>
        <mxCell id="HPqKZyKz4oHkFwGDCJG2-4" value="SeleniumTest CR" style="rounded=1;whiteSpace=wrap;html=1;" parent="1" vertex="1">
          <mxGeometry x="240" y="450" width="90" height="50" as="geometry" />
        </mxCell>
        <mxCell id="HPqKZyKz4oHkFwGDCJG2-5" value="Configmap with selenium .side test in it" style="rounded=1;whiteSpace=wrap;html=1;" parent="1" vertex="1">
          <mxGeometry x="390" y="450" width="131" height="50" as="geometry" />
        </mxCell>
        <mxCell id="HPqKZyKz4oHkFwGDCJG2-13" style="rounded=0;orthogonalLoop=1;jettySize=auto;html=1;entryX=0.5;entryY=0;entryDx=0;entryDy=0;endArrow=none;endFill=0;startArrow=classic;startFill=1;" parent="1" source="HPqKZyKz4oHkFwGDCJG2-10" target="HPqKZyKz4oHkFwGDCJG2-4" edge="1">
          <mxGeometry relative="1" as="geometry" />
        </mxCell>
        <mxCell id="HPqKZyKz4oHkFwGDCJG2-16" style="edgeStyle=orthogonalEdgeStyle;rounded=0;orthogonalLoop=1;jettySize=auto;html=1;exitX=0.911;exitY=0.796;exitDx=0;exitDy=0;entryX=0.014;entryY=0.557;entryDx=0;entryDy=0;entryPerimeter=0;exitPerimeter=0;" parent="1" source="HPqKZyKz4oHkFwGDCJG2-10" target="HPqKZyKz4oHkFwGDCJG2-20" edge="1">
          <mxGeometry relative="1" as="geometry">
            <mxPoint x="390" y="368" as="targetPoint" />
          </mxGeometry>
        </mxCell>
        <mxCell id="HPqKZyKz4oHkFwGDCJG2-14" value="Reconciles" style="text;html=1;align=center;verticalAlign=middle;resizable=0;points=[];autosize=1;strokeColor=none;fillColor=none;" parent="1" vertex="1">
          <mxGeometry x="170" y="415" width="80" height="30" as="geometry" />
        </mxCell>
        <mxCell id="HPqKZyKz4oHkFwGDCJG2-17" value="Creates" style="text;html=1;align=center;verticalAlign=middle;resizable=0;points=[];autosize=1;strokeColor=none;fillColor=none;" parent="1" vertex="1">
          <mxGeometry x="235" y="340" width="70" height="30" as="geometry" />
        </mxCell>
        <mxCell id="HPqKZyKz4oHkFwGDCJG2-18" value="" style="shape=image;verticalLabelPosition=bottom;labelBackgroundColor=default;verticalAlign=top;aspect=fixed;imageAspect=0;image=data:image/svg+xml,PHN2ZyB4bWxucz0iaHR0cDovL3d3dy53My5vcmcvMjAwMC9zdmciIGlkPSJzdmcxMzgyNiIgdmVyc2lvbj0iMS4xIiB2aWV3Qm94PSIwIDAgMTguMDM1MzM0IDE3LjUwMDM3OCIgaGVpZ2h0PSIxNy41MDAzNzhtbSIgd2lkdGg9IjE4LjAzNTMzNG1tIj4mI3hhOyAgPGRlZnMgaWQ9ImRlZnMxMzgyMCIvPiYjeGE7ICAmI3hhOyAgPG1ldGFkYXRhIGlkPSJtZXRhZGF0YTEzODIzIj4mI3hhOyAgICAmI3hhOyAgICAgICYjeGE7ICAgICAgICBpbWFnZS9zdmcreG1sJiN4YTsgICAgICAgICYjeGE7ICAgICAgICAmI3hhOyAgICAgICYjeGE7ICAgICYjeGE7ICA8L21ldGFkYXRhPiYjeGE7ICA8ZyB0cmFuc2Zvcm09InRyYW5zbGF0ZSgtMC45OTI2MjYzOCwtMS4xNzQxODEpIiBpZD0ibGF5ZXIxIj4mI3hhOyAgICA8ZyB0cmFuc2Zvcm09Im1hdHJpeCgxLjAxNDg4ODcsMCwwLDEuMDE0ODg4NywxNi45MDIxNDYsLTIuNjk4NzI2KSIgaWQ9Imc3MCI+JiN4YTsgICAgICA8cGF0aCBzdHlsZT0iZmlsbDojMzI2Y2U1O2ZpbGwtb3BhY2l0eToxO3N0cm9rZTpub25lO3N0cm9rZS13aWR0aDowO3N0cm9rZS1taXRlcmxpbWl0OjQ7c3Ryb2tlLWRhc2hhcnJheTpub25lO3N0cm9rZS1vcGFjaXR5OjEiIGQ9Im0gLTYuODQ5MjAxNSw0LjI3MjQ2NjggYSAxLjExOTEyNTUsMS4xMDk5NjcxIDAgMCAwIC0wLjQyODg4MTgsMC4xMDg1MzAzIGwgLTUuODUyNDAzNywyLjc5NjMzOTQgYSAxLjExOTEyNTUsMS4xMDk5NjcxIDAgMCAwIC0wLjYwNTUyNCwwLjc1Mjk3NTkgbCAtMS40NDM4MjgsNi4yODEyODQ2IGEgMS4xMTkxMjU1LDEuMTA5OTY3MSAwIDAgMCAwLjE1MTk0MywwLjg1MTAyOCAxLjExOTEyNTUsMS4xMDk5NjcxIDAgMCAwIDAuMDYzNjIsMC4wODgzMiBsIDQuMDUwOCw1LjAzNjU1NSBhIDEuMTE5MTI1NSwxLjEwOTk2NzEgMCAwIDAgMC44NzQ5NzksMC40MTc2NTQgbCA2LjQ5NjEwMTEsLTAuMDAxNSBhIDEuMTE5MTI1NSwxLjEwOTk2NzEgMCAwIDAgMC44NzQ5Nzg4LC0wLjQxNjkwNiBMIDEuMzgxODg3MiwxNS4xNDk0NTMgQSAxLjExOTEyNTUsMS4xMDk5NjcxIDAgMCAwIDEuNTk4MTk4NiwxNC4yMTAxMDQgTCAwLjE1MjEyNjU3LDcuOTI4ODE1NCBBIDEuMTE5MTI1NSwxLjEwOTk2NzEgMCAwIDAgLTAuNDUzMzk3OTQsNy4xNzU4Mzk2IEwgLTYuMzA2NTQ5Niw0LjM4MDk5NzEgQSAxLjExOTEyNTUsMS4xMDk5NjcxIDAgMCAwIC02Ljg0OTIwMTUsNC4yNzI0NjY4IFoiIGlkPSJwYXRoMzA1NSIvPiYjeGE7ICAgICAgPHBhdGggdGV4dC1hbmNob3I9InN0YXJ0IiBzdHlsZT0iY29sb3I6IzAwMDAwMDtmb250LXN0eWxlOm5vcm1hbDtmb250LXZhcmlhbnQ6bm9ybWFsO2ZvbnQtd2VpZ2h0Om5vcm1hbDtmb250LXN0cmV0Y2g6bm9ybWFsO2ZvbnQtc2l6ZTptZWRpdW07bGluZS1oZWlnaHQ6bm9ybWFsO2ZvbnQtZmFtaWx5OlNhbnM7LWlua3NjYXBlLWZvbnQtc3BlY2lmaWNhdGlvbjpTYW5zO3RleHQtaW5kZW50OjA7dGV4dC1hbGlnbjpzdGFydDt0ZXh0LWRlY29yYXRpb246bm9uZTt0ZXh0LWRlY29yYXRpb24tbGluZTpub25lO2xldHRlci1zcGFjaW5nOm5vcm1hbDt3b3JkLXNwYWNpbmc6bm9ybWFsO3RleHQtdHJhbnNmb3JtOm5vbmU7d3JpdGluZy1tb2RlOmxyLXRiO2RpcmVjdGlvbjpsdHI7YmFzZWxpbmUtc2hpZnQ6YmFzZWxpbmU7ZGlzcGxheTppbmxpbmU7b3ZlcmZsb3c6dmlzaWJsZTt2aXNpYmlsaXR5OnZpc2libGU7ZmlsbDojZmZmZmZmO2ZpbGwtb3BhY2l0eToxO2ZpbGwtcnVsZTpub256ZXJvO3N0cm9rZTpub25lO3N0cm9rZS13aWR0aDowO3N0cm9rZS1taXRlcmxpbWl0OjQ7c3Ryb2tlLWRhc2hhcnJheTpub25lO21hcmtlcjpub25lO2VuYWJsZS1iYWNrZ3JvdW5kOmFjY3VtdWxhdGUiIGQ9Ik0gLTYuODUyMzQzNSwzLjgxNzYzNzIgQSAxLjE4MTQzMDQsMS4xNzE3NjIgMCAwIDAgLTcuMzA0NDI4NCwzLjkzMjkwNCBsIC02LjE3ODc0MjYsMi45NTEyNzU4IGEgMS4xODE0MzA0LDEuMTcxNzYyIDAgMCAwIC0wLjYzOTIwNiwwLjc5NDg5MSBsIC0xLjUyMzkxNSw2LjYzMDgyODIgYSAxLjE4MTQzMDQsMS4xNzE3NjIgMCAwIDAgMC4xNjAxNzUsMC44OTg5MyAxLjE4MTQzMDQsMS4xNzE3NjIgMCAwIDAgMC4wNjczNiwwLjA5MjgxIGwgNC4yNzYwOTQsNS4zMTcyMzYgYSAxLjE4MTQzMDQsMS4xNzE3NjIgMCAwIDAgMC45MjM2MywwLjQ0MDg1OCBsIDYuODU3NjE4OCwtMC4wMDE1IGEgMS4xODE0MzA0LDEuMTcxNzYyIDAgMCAwIDAuOTIzNjMwOCwtMC40NDAxMSBsIDQuMjc0NTk2NiwtNS4zMTc5ODUgYSAxLjE4MTQzMDQsMS4xNzE3NjIgMCAwIDAgMC4yMjgyODgsLTAuOTkwOTkzIEwgMC41Mzg5NDQzOSw3LjY3NzU3MzggQSAxLjE4MTQzMDQsMS4xNzE3NjIgMCAwIDAgLTAuMTAwMjYxMDEsNi44ODM0MzEzIEwgLTYuMjc5MDAzNywzLjkzMjE1NTUgQSAxLjE4MTQzMDQsMS4xNzE3NjIgMCAwIDAgLTYuODUyMzQzNSwzLjgxNzYzNzIgWiBtIDAuMDAyOTksMC40NTUwNzg5IGEgMS4xMTkxMjU1LDEuMTA5OTY3MSAwIDAgMSAwLjU0MjY1MTcsMC4xMDg1MzAzIGwgNS44NTMxNTE2OSwyLjc5NDg0MjUgQSAxLjExOTEyNTUsMS4xMDk5NjcxIDAgMCAxIDAuMTUxOTc4MTEsNy45MjkwNjQ4IEwgMS41OTgwNTEsMTQuMjEwMzUgYSAxLjExOTEyNTUsMS4xMDk5NjcxIDAgMCAxIC0wLjIxNjMxMjMsMC45MzkzNDggbCAtNC4wNDkzMDMyLDUuMDM3MzA0IGEgMS4xMTkxMjU1LDEuMTA5OTY3MSAwIDAgMSAtMC44NzQ5Nzg5LDAuNDE2OTA2IGwgLTYuNDk2MTAwNiwwLjAwMTUgYSAxLjExOTEyNTUsMS4xMDk5NjcxIDAgMCAxIC0wLjg3NDk3OSwtMC40MTc2NTIgbCAtNC4wNTA4LC01LjAzNjU1NCBhIDEuMTE5MTI1NSwxLjEwOTk2NzEgMCAwIDEgLTAuMDYzNjIsLTAuMDg4MzIgMS4xMTkxMjU1LDEuMTA5OTY3MSAwIDAgMSAtMC4xNTE5NDIsLTAuODUxMDI4IGwgMS40NDM4MjcsLTYuMjgxMjg1MyBhIDEuMTE5MTI1NSwxLjEwOTk2NzEgMCAwIDEgMC42MDU1MjQsLTAuNzUyOTc1OCBsIDUuODUyNDAzNiwtMi43OTYzMzk1IGEgMS4xMTkxMjU1LDEuMTA5OTY3MSAwIDAgMSAwLjQyODg4MTksLTAuMTA4NTMwMyB6IiBpZD0icGF0aDMwNTQtMi05Ii8+JiN4YTsgICAgPC9nPiYjeGE7ICAgIDx0ZXh0IHhtbDpzcGFjZT0icHJlc2VydmUiIHN0eWxlPSJmb250LXN0eWxlOm5vcm1hbDtmb250LXdlaWdodDpub3JtYWw7Zm9udC1zaXplOjEwLjU4MzMzMzAycHg7bGluZS1oZWlnaHQ6Ni42MTQ1ODM0OXB4O2ZvbnQtZmFtaWx5OlNhbnM7bGV0dGVyLXNwYWNpbmc6MHB4O3dvcmQtc3BhY2luZzowcHg7ZmlsbDojZmZmZmZmO2ZpbGwtb3BhY2l0eToxO3N0cm9rZTpub25lO3N0cm9rZS13aWR0aDowLjI2NDU4MzMycHg7c3Ryb2tlLWxpbmVjYXA6YnV0dDtzdHJva2UtbGluZWpvaW46bWl0ZXI7c3Ryb2tlLW9wYWNpdHk6MSIgeD0iMTAuMDQ3NTAxIiB5PSIxNi44MTE3NzUiIGlkPSJ0ZXh0MjA2NiI+PHRzcGFuIGlkPSJ0c3BhbjIwNjQiIHg9IjEwLjA0NzUwMSIgeT0iMTYuODExNzc1IiB0ZXh0LWFuY2hvcj0ibWlkZGxlIiBzdHlsZT0iZm9udC1zdHlsZTpub3JtYWw7Zm9udC12YXJpYW50Om5vcm1hbDtmb250LXdlaWdodDpub3JtYWw7Zm9udC1zdHJldGNoOm5vcm1hbDtmb250LXNpemU6Mi44MjIyMjIyM3B4O2ZvbnQtZmFtaWx5OkFyaWFsOy1pbmtzY2FwZS1mb250LXNwZWNpZmljYXRpb246J0FyaWFsLCBOb3JtYWwnO3RleHQtYWxpZ246Y2VudGVyO3dyaXRpbmctbW9kZTpsci10YjtmaWxsOiNmZmZmZmY7ZmlsbC1vcGFjaXR5OjE7c3Ryb2tlLXdpZHRoOjAuMjY0NTgzMzJweCI+Y208L3RzcGFuPjwvdGV4dD4mI3hhOyAgICA8ZyB0cmFuc2Zvcm09InRyYW5zbGF0ZSgwLjExNzc4OTgxLDApIiBpZD0iZzMzNDkiPiYjeGE7ICAgICAgPHBhdGggaWQ9InBhdGg4NzYiIGQ9Im0gOC4yMzY5NDgsNi4yOTE0MjYyIDUuODI1MDAxLDAiIHN0eWxlPSJmaWxsOm5vbmU7ZmlsbC1ydWxlOmV2ZW5vZGQ7c3Ryb2tlOiNmZmZmZmY7c3Ryb2tlLXdpZHRoOjAuNzkzNzQ5OTk7c3Ryb2tlLWxpbmVjYXA6YnV0dDtzdHJva2UtbGluZWpvaW46cm91bmQ7c3Ryb2tlLW1pdGVybGltaXQ6MTA7c3Ryb2tlLW9wYWNpdHk6MSIvPiYjeGE7ICAgICAgPHBhdGggaWQ9InBhdGg4ODAiIGQ9Im0gNS43MjMwNTgsNi4yOTE0MjYyIDEuNDU4MzQsMCIgc3R5bGU9ImZpbGw6bm9uZTtmaWxsLXJ1bGU6ZXZlbm9kZDtzdHJva2U6I2ZmZmZmZjtzdHJva2Utd2lkdGg6MC43OTM3NDk5OTtzdHJva2UtbGluZWNhcDpidXR0O3N0cm9rZS1saW5lam9pbjpyb3VuZDtzdHJva2UtbWl0ZXJsaW1pdDoxMDtzdHJva2Utb3BhY2l0eToxIi8+JiN4YTsgICAgICA8YSBpZD0iYTMzNDYiPiYjeGE7ICAgICAgICA8cGF0aCBzdHlsZT0iZmlsbDpub25lO2ZpbGwtcnVsZTpldmVub2RkO3N0cm9rZTojZmZmZmZmO3N0cm9rZS13aWR0aDowLjc5Mzc0OTk5O3N0cm9rZS1saW5lY2FwOmJ1dHQ7c3Ryb2tlLWxpbmVqb2luOnJvdW5kO3N0cm9rZS1taXRlcmxpbWl0OjEwO3N0cm9rZS1vcGFjaXR5OjEiIGQ9Im0gMTAuMzUzNjE5LDguNDA4MDkyOCAzLjcwODMzLDAiIGlkPSJwYXRoODg0Ii8+JiN4YTsgICAgICA8L2E+JiN4YTsgICAgICA8cGF0aCBpZD0icGF0aDg4OCIgZD0ibSA3LjgzOTcyOCw4LjQwODA5MjggMS40NTgzMzA1LDAiIHN0eWxlPSJmaWxsOm5vbmU7ZmlsbC1ydWxlOmV2ZW5vZGQ7c3Ryb2tlOiNmZmZmZmY7c3Ryb2tlLXdpZHRoOjAuNzkzNzQ5OTk7c3Ryb2tlLWxpbmVjYXA6YnV0dDtzdHJva2UtbGluZWpvaW46cm91bmQ7c3Ryb2tlLW1pdGVybGltaXQ6MTA7c3Ryb2tlLW9wYWNpdHk6MSIvPiYjeGE7ICAgICAgPHBhdGggaWQ9InBhdGg4OTIiIGQ9Im0gMTAuMzUzNjE5LDEwLjUyNDc2IDMuNzA4MzMsMCIgc3R5bGU9ImZpbGw6bm9uZTtmaWxsLXJ1bGU6ZXZlbm9kZDtzdHJva2U6I2ZmZmZmZjtzdHJva2Utd2lkdGg6MC43OTM3NDk5OTtzdHJva2UtbGluZWNhcDpidXR0O3N0cm9rZS1saW5lam9pbjpyb3VuZDtzdHJva2UtbWl0ZXJsaW1pdDoxMDtzdHJva2Utb3BhY2l0eToxIi8+JiN4YTsgICAgICA8cGF0aCBpZD0icGF0aDg5NiIgZD0ibSA3LjgzOTcyOCwxMC41MjQ3NiAxLjQ1ODMzMDUsMCIgc3R5bGU9ImZpbGw6bm9uZTtmaWxsLXJ1bGU6ZXZlbm9kZDtzdHJva2U6I2ZmZmZmZjtzdHJva2Utd2lkdGg6MC43OTM3NDk5OTtzdHJva2UtbGluZWNhcDpidXR0O3N0cm9rZS1saW5lam9pbjpyb3VuZDtzdHJva2UtbWl0ZXJsaW1pdDoxMDtzdHJva2Utb3BhY2l0eToxIi8+JiN4YTsgICAgICA8cGF0aCBpZD0icGF0aDkwMCIgZD0ibSA4LjIzNjk0OCwxMi42NDE0MjggNS44MjUwMDEsMCIgc3R5bGU9ImZpbGw6bm9uZTtmaWxsLXJ1bGU6ZXZlbm9kZDtzdHJva2U6I2ZmZmZmZjtzdHJva2Utd2lkdGg6MC43OTM3NDk5OTtzdHJva2UtbGluZWNhcDpidXR0O3N0cm9rZS1saW5lam9pbjpyb3VuZDtzdHJva2UtbWl0ZXJsaW1pdDoxMDtzdHJva2Utb3BhY2l0eToxIi8+JiN4YTsgICAgICA8cGF0aCBpZD0icGF0aDkwNCIgZD0ibSA1LjcyMzA1OCwxMi42NDE0MjggMS40NTgzNCwwIiBzdHlsZT0iZmlsbDpub25lO2ZpbGwtcnVsZTpldmVub2RkO3N0cm9rZTojZmZmZmZmO3N0cm9rZS13aWR0aDowLjc5Mzc0OTk5O3N0cm9rZS1saW5lY2FwOmJ1dHQ7c3Ryb2tlLWxpbmVqb2luOnJvdW5kO3N0cm9rZS1taXRlcmxpbWl0OjEwO3N0cm9rZS1vcGFjaXR5OjEiLz4mI3hhOyAgICA8L2c+JiN4YTsgIDwvZz4mI3hhOzwvc3ZnPg==;" parent="1" vertex="1">
          <mxGeometry x="505" y="420" width="50" height="50" as="geometry" />
        </mxCell>
        <mxCell id="HPqKZyKz4oHkFwGDCJG2-22" style="rounded=0;orthogonalLoop=1;jettySize=auto;html=1;entryX=0;entryY=0.5;entryDx=0;entryDy=0;exitX=1.039;exitY=0.563;exitDx=0;exitDy=0;exitPerimeter=0;" parent="1" source="HPqKZyKz4oHkFwGDCJG2-20" target="HPqKZyKz4oHkFwGDCJG2-21" edge="1">
          <mxGeometry relative="1" as="geometry" />
        </mxCell>
        <mxCell id="HPqKZyKz4oHkFwGDCJG2-20" value="" style="shape=image;verticalLabelPosition=bottom;labelBackgroundColor=default;verticalAlign=top;aspect=fixed;imageAspect=0;image=data:image/svg+xml,PHN2ZyB4bWxucz0iaHR0cDovL3d3dy53My5vcmcvMjAwMC9zdmciIGlkPSJzdmcxMzgyNiIgdmVyc2lvbj0iMS4xIiB2aWV3Qm94PSIwIDAgMTguMDM1MzM0IDE3LjUwMDM3OCIgaGVpZ2h0PSIxNy41MDAzNzhtbSIgd2lkdGg9IjE4LjAzNTMzNG1tIj4mI3hhOyAgPGRlZnMgaWQ9ImRlZnMxMzgyMCIvPiYjeGE7ICAmI3hhOyAgPG1ldGFkYXRhIGlkPSJtZXRhZGF0YTEzODIzIj4mI3hhOyAgICAmI3hhOyAgICAgICYjeGE7ICAgICAgICBpbWFnZS9zdmcreG1sJiN4YTsgICAgICAgICYjeGE7ICAgICAgICAmI3hhOyAgICAgICYjeGE7ICAgICYjeGE7ICA8L21ldGFkYXRhPiYjeGE7ICA8ZyB0cmFuc2Zvcm09InRyYW5zbGF0ZSgtMC45OTI2MjYzOCwtMS4xNzQxODEpIiBpZD0ibGF5ZXIxIj4mI3hhOyAgICA8ZyB0cmFuc2Zvcm09Im1hdHJpeCgxLjAxNDg4ODcsMCwwLDEuMDE0ODg4NywxNi45MDIxNDYsLTIuNjk4NzI2KSIgaWQ9Imc3MCI+JiN4YTsgICAgICA8cGF0aCBzdHlsZT0iZmlsbDojMzI2Y2U1O2ZpbGwtb3BhY2l0eToxO3N0cm9rZTpub25lO3N0cm9rZS13aWR0aDowO3N0cm9rZS1taXRlcmxpbWl0OjQ7c3Ryb2tlLWRhc2hhcnJheTpub25lO3N0cm9rZS1vcGFjaXR5OjEiIGQ9Im0gLTYuODQ5MjAxNSw0LjI3MjQ2NjggYSAxLjExOTEyNTUsMS4xMDk5NjcxIDAgMCAwIC0wLjQyODg4MTgsMC4xMDg1MzAzIGwgLTUuODUyNDAzNywyLjc5NjMzOTQgYSAxLjExOTEyNTUsMS4xMDk5NjcxIDAgMCAwIC0wLjYwNTUyNCwwLjc1Mjk3NTkgbCAtMS40NDM4MjgsNi4yODEyODQ2IGEgMS4xMTkxMjU1LDEuMTA5OTY3MSAwIDAgMCAwLjE1MTk0MywwLjg1MTAyOCAxLjExOTEyNTUsMS4xMDk5NjcxIDAgMCAwIDAuMDYzNjIsMC4wODgzMiBsIDQuMDUwOCw1LjAzNjU1NSBhIDEuMTE5MTI1NSwxLjEwOTk2NzEgMCAwIDAgMC44NzQ5NzksMC40MTc2NTQgbCA2LjQ5NjEwMTEsLTAuMDAxNSBhIDEuMTE5MTI1NSwxLjEwOTk2NzEgMCAwIDAgMC44NzQ5Nzg4LC0wLjQxNjkwNiBMIDEuMzgxODg3MiwxNS4xNDk0NTMgQSAxLjExOTEyNTUsMS4xMDk5NjcxIDAgMCAwIDEuNTk4MTk4NiwxNC4yMTAxMDQgTCAwLjE1MjEyNjU3LDcuOTI4ODE1NCBBIDEuMTE5MTI1NSwxLjEwOTk2NzEgMCAwIDAgLTAuNDUzMzk3OTQsNy4xNzU4Mzk2IEwgLTYuMzA2NTQ5Niw0LjM4MDk5NzEgQSAxLjExOTEyNTUsMS4xMDk5NjcxIDAgMCAwIC02Ljg0OTIwMTUsNC4yNzI0NjY4IFoiIGlkPSJwYXRoMzA1NSIvPiYjeGE7ICAgICAgPHBhdGggdGV4dC1hbmNob3I9InN0YXJ0IiBzdHlsZT0iY29sb3I6IzAwMDAwMDtmb250LXN0eWxlOm5vcm1hbDtmb250LXZhcmlhbnQ6bm9ybWFsO2ZvbnQtd2VpZ2h0Om5vcm1hbDtmb250LXN0cmV0Y2g6bm9ybWFsO2ZvbnQtc2l6ZTptZWRpdW07bGluZS1oZWlnaHQ6bm9ybWFsO2ZvbnQtZmFtaWx5OlNhbnM7LWlua3NjYXBlLWZvbnQtc3BlY2lmaWNhdGlvbjpTYW5zO3RleHQtaW5kZW50OjA7dGV4dC1hbGlnbjpzdGFydDt0ZXh0LWRlY29yYXRpb246bm9uZTt0ZXh0LWRlY29yYXRpb24tbGluZTpub25lO2xldHRlci1zcGFjaW5nOm5vcm1hbDt3b3JkLXNwYWNpbmc6bm9ybWFsO3RleHQtdHJhbnNmb3JtOm5vbmU7d3JpdGluZy1tb2RlOmxyLXRiO2RpcmVjdGlvbjpsdHI7YmFzZWxpbmUtc2hpZnQ6YmFzZWxpbmU7ZGlzcGxheTppbmxpbmU7b3ZlcmZsb3c6dmlzaWJsZTt2aXNpYmlsaXR5OnZpc2libGU7ZmlsbDojZmZmZmZmO2ZpbGwtb3BhY2l0eToxO2ZpbGwtcnVsZTpub256ZXJvO3N0cm9rZTpub25lO3N0cm9rZS13aWR0aDowO3N0cm9rZS1taXRlcmxpbWl0OjQ7c3Ryb2tlLWRhc2hhcnJheTpub25lO21hcmtlcjpub25lO2VuYWJsZS1iYWNrZ3JvdW5kOmFjY3VtdWxhdGUiIGQ9Ik0gLTYuODUyMzQzNSwzLjgxNzYzNzIgQSAxLjE4MTQzMDQsMS4xNzE3NjIgMCAwIDAgLTcuMzA0NDI4NCwzLjkzMjkwNCBsIC02LjE3ODc0MjYsMi45NTEyNzU4IGEgMS4xODE0MzA0LDEuMTcxNzYyIDAgMCAwIC0wLjYzOTIwNiwwLjc5NDg5MSBsIC0xLjUyMzkxNSw2LjYzMDgyODIgYSAxLjE4MTQzMDQsMS4xNzE3NjIgMCAwIDAgMC4xNjAxNzUsMC44OTg5MyAxLjE4MTQzMDQsMS4xNzE3NjIgMCAwIDAgMC4wNjczNiwwLjA5MjgxIGwgNC4yNzYwOTQsNS4zMTcyMzYgYSAxLjE4MTQzMDQsMS4xNzE3NjIgMCAwIDAgMC45MjM2MywwLjQ0MDg1OCBsIDYuODU3NjE4OCwtMC4wMDE1IGEgMS4xODE0MzA0LDEuMTcxNzYyIDAgMCAwIDAuOTIzNjMwOCwtMC40NDAxMSBsIDQuMjc0NTk2NiwtNS4zMTc5ODUgYSAxLjE4MTQzMDQsMS4xNzE3NjIgMCAwIDAgMC4yMjgyODgsLTAuOTkwOTkzIEwgMC41Mzg5NDQzOSw3LjY3NzU3MzggQSAxLjE4MTQzMDQsMS4xNzE3NjIgMCAwIDAgLTAuMTAwMjYxMDEsNi44ODM0MzEzIEwgLTYuMjc5MDAzNywzLjkzMjE1NTUgQSAxLjE4MTQzMDQsMS4xNzE3NjIgMCAwIDAgLTYuODUyMzQzNSwzLjgxNzYzNzIgWiBtIDAuMDAyOTksMC40NTUwNzg5IGEgMS4xMTkxMjU1LDEuMTA5OTY3MSAwIDAgMSAwLjU0MjY1MTcsMC4xMDg1MzAzIGwgNS44NTMxNTE2OSwyLjc5NDg0MjUgQSAxLjExOTEyNTUsMS4xMDk5NjcxIDAgMCAxIDAuMTUxOTc4MTEsNy45MjkwNjQ4IEwgMS41OTgwNTEsMTQuMjEwMzUgYSAxLjExOTEyNTUsMS4xMDk5NjcxIDAgMCAxIC0wLjIxNjMxMjMsMC45MzkzNDggbCAtNC4wNDkzMDMyLDUuMDM3MzA0IGEgMS4xMTkxMjU1LDEuMTA5OTY3MSAwIDAgMSAtMC44NzQ5Nzg5LDAuNDE2OTA2IGwgLTYuNDk2MTAwNiwwLjAwMTUgYSAxLjExOTEyNTUsMS4xMDk5NjcxIDAgMCAxIC0wLjg3NDk3OSwtMC40MTc2NTIgbCAtNC4wNTA4LC01LjAzNjU1NCBhIDEuMTE5MTI1NSwxLjEwOTk2NzEgMCAwIDEgLTAuMDYzNjIsLTAuMDg4MzIgMS4xMTkxMjU1LDEuMTA5OTY3MSAwIDAgMSAtMC4xNTE5NDIsLTAuODUxMDI4IGwgMS40NDM4MjcsLTYuMjgxMjg1MyBhIDEuMTE5MTI1NSwxLjEwOTk2NzEgMCAwIDEgMC42MDU1MjQsLTAuNzUyOTc1OCBsIDUuODUyNDAzNiwtMi43OTYzMzk1IGEgMS4xMTkxMjU1LDEuMTA5OTY3MSAwIDAgMSAwLjQyODg4MTksLTAuMTA4NTMwMyB6IiBpZD0icGF0aDMwNTQtMi05Ii8+JiN4YTsgICAgPC9nPiYjeGE7ICAgIDx0ZXh0IHhtbDpzcGFjZT0icHJlc2VydmUiIHN0eWxlPSJmb250LXN0eWxlOm5vcm1hbDtmb250LXdlaWdodDpub3JtYWw7Zm9udC1zaXplOjEwLjU4MzMzMzAycHg7bGluZS1oZWlnaHQ6Ni42MTQ1ODM0OXB4O2ZvbnQtZmFtaWx5OlNhbnM7bGV0dGVyLXNwYWNpbmc6MHB4O3dvcmQtc3BhY2luZzowcHg7ZmlsbDojZmZmZmZmO2ZpbGwtb3BhY2l0eToxO3N0cm9rZTpub25lO3N0cm9rZS13aWR0aDowLjI2NDU4MzMycHg7c3Ryb2tlLWxpbmVjYXA6YnV0dDtzdHJva2UtbGluZWpvaW46bWl0ZXI7c3Ryb2tlLW9wYWNpdHk6MSIgeD0iMTAuMDEwOTgzIiB5PSIxNi44MTE3NzUiIGlkPSJ0ZXh0MjA2NiI+PHRzcGFuIGlkPSJ0c3BhbjIwNjQiIHg9IjEwLjAxMDk4MyIgeT0iMTYuODExNzc1IiB0ZXh0LWFuY2hvcj0ibWlkZGxlIiBzdHlsZT0iZm9udC1zdHlsZTpub3JtYWw7Zm9udC12YXJpYW50Om5vcm1hbDtmb250LXdlaWdodDpub3JtYWw7Zm9udC1zdHJldGNoOm5vcm1hbDtmb250LXNpemU6Mi44MjIyMjIyM3B4O2ZvbnQtZmFtaWx5OkFyaWFsOy1pbmtzY2FwZS1mb250LXNwZWNpZmljYXRpb246J0FyaWFsLCBOb3JtYWwnO3RleHQtYWxpZ246Y2VudGVyO3dyaXRpbmctbW9kZTpsci10YjtmaWxsOiNmZmZmZmY7ZmlsbC1vcGFjaXR5OjE7c3Ryb2tlLXdpZHRoOjAuMjY0NTgzMzJweCI+Y3JvbmpvYjwvdHNwYW4+PC90ZXh0PiYjeGE7ICAgIDxnIHRyYW5zZm9ybT0idHJhbnNsYXRlKC0wLjU3Nzg4ODI0LDApIiBpZD0iZzMzNDAiPiYjeGE7ICAgICAgPHBhdGggc3R5bGU9Im9wYWNpdHk6MTtmaWxsOiNmZmZmZmY7ZmlsbC1vcGFjaXR5OjE7ZmlsbC1ydWxlOm5vbnplcm87c3Ryb2tlOm5vbmU7c3Ryb2tlLXdpZHRoOjAuNzA4OTk5OTk7c3Ryb2tlLWxpbmVjYXA6YnV0dDtzdHJva2UtbGluZWpvaW46cm91bmQ7c3Ryb2tlLW1pdGVybGltaXQ6MTA7c3Ryb2tlLWRhc2hhcnJheToxLjQxOCwgMS40MTg7c3Ryb2tlLWRhc2hvZmZzZXQ6MjMuMDQ1MjkxOTtzdHJva2Utb3BhY2l0eToxIiBkPSJtIDExLjY3MjUwMiwzLjk2MDAzNDcgMCwyLjE0MjUwNiAyLjIwMjk2LDAgMCwtMi4xNDI1MDYgeiBtIDAsMy4wODQwNSAwLDAuNTQ2MjE5MSBjIDAuMjU4NywtMC4wNjEyMiAwLjUyNjg1LC0wLjA5NzE1IDAuODAzNTcsLTAuMDk3MTUgMC40OTcwMSwwIDAuOTY5NzgsMC4xMDYzMjMgMS4zOTkzOSwwLjI5NDU1NDggbCAwLC0wLjc0MzYyMzkgeiBtIC02LjI4Mzg1OTgsMC4wMzMwNyAwLDIuMTQyNTA1MSAyLjIwMjk3LDAgMCwtMi4xNDI1MDUxIHogbSAzLjE0MTkzMDEsMCAwLDIuMTQyNTA1MSAwLjkyODEwOTgsMCBDIDkuNzY4OTcyMiw4LjY5OTMzMDggMTAuMjA4MjcyLDguMjY1MDQzOCAxMC43MzM1NDIsNy45NjIzNzA5IGwgMCwtMC44ODUyMTYzIHogbSAtMy4xNjIwODAyLDMuMTE3MTIyMyAwLDIuMTQyNTA2IDIuMjAyOTcwMSwwIDAsLTIuMTQyNTA2IHogbSAzLjE1MTc1MDEsMCAwLDIuMTQyNTA2IDAuNzA2NDEwMSwwIGMgLTAuMTY5MzUsLTAuNDEwNzYzIC0wLjI2NDU4LC0wLjg1OTYyMSAtMC4yNjQ1OCwtMS4zMjk2MzUgMCwtMC4yODAwOCAwLjAzNzEsLTAuNTUxMjk2IDAuMDk5NywtMC44MTI4NzEgeiIgaWQ9InJlY3Q5MDYxIi8+JiN4YTsgICAgICA8cGF0aCBzdHlsZT0iZmlsbDojZmZmZmZmO2ZpbGwtb3BhY2l0eToxO3N0cm9rZS13aWR0aDowLjMxOTk4MDUzIiBkPSJtIDEyLjYwODA3Miw3LjkzOTQ3MjggYyAtMS43NTk5LDAgLTMuMTk5Nzk5OCwxLjQzOTkxMiAtMy4xOTk3OTk4LDMuMTk5ODA1MiAwLDEuNzU5ODkzIDEuNDM5ODk5OCwzLjE5OTgwNSAzLjE5OTc5OTgsMy4xOTk4MDUgMS43NTk4OSwwIDMuMTk5Nzk5LC0xLjQzOTkxMiAzLjE5OTc5OSwtMy4xOTk4MDUgMCwtMS43NTk4OTMyIC0xLjQzOTkwOSwtMy4xOTk4MDUyIC0zLjE5OTc5OSwtMy4xOTk4MDUyIHogbSAxLjM0MzkyLDQuNTQzNzIzMiAtMS42NjM5LC0xLjAyMzkzOCAwLC0xLjkxOTg4MzIgMC40Nzk5NywwIDAsMS42NjM5MDAyIDEuNDM5OTIsMC44NjM5NDcgeiIgaWQ9InBhdGg5MDg3Ii8+JiN4YTsgICAgPC9nPiYjeGE7ICA8L2c+JiN4YTs8L3N2Zz4=;" parent="1" vertex="1">
          <mxGeometry x="360" y="329" width="70" height="70" as="geometry" />
        </mxCell>
        <mxCell id="HPqKZyKz4oHkFwGDCJG2-25" style="rounded=0;orthogonalLoop=1;jettySize=auto;html=1;" parent="1" source="HPqKZyKz4oHkFwGDCJG2-21" target="HPqKZyKz4oHkFwGDCJG2-24" edge="1">
          <mxGeometry relative="1" as="geometry" />
        </mxCell>
        <mxCell id="HPqKZyKz4oHkFwGDCJG2-21" value="" style="shape=image;verticalLabelPosition=bottom;labelBackgroundColor=default;verticalAlign=top;aspect=fixed;imageAspect=0;image=data:image/svg+xml,PHN2ZyB4bWxucz0iaHR0cDovL3d3dy53My5vcmcvMjAwMC9zdmciIGlkPSJzdmcxMzgyNiIgdmVyc2lvbj0iMS4xIiB2aWV3Qm94PSIwIDAgMTguMDM1MzM0IDE3LjUwMDM3OCIgaGVpZ2h0PSIxNy41MDAzNzhtbSIgd2lkdGg9IjE4LjAzNTMzNG1tIj4mI3hhOyAgPGRlZnMgaWQ9ImRlZnMxMzgyMCIvPiYjeGE7ICAmI3hhOyAgPG1ldGFkYXRhIGlkPSJtZXRhZGF0YTEzODIzIj4mI3hhOyAgICAmI3hhOyAgICAgICYjeGE7ICAgICAgICBpbWFnZS9zdmcreG1sJiN4YTsgICAgICAgICYjeGE7ICAgICAgICAmI3hhOyAgICAgICYjeGE7ICAgICYjeGE7ICA8L21ldGFkYXRhPiYjeGE7ICA8ZyB0cmFuc2Zvcm09InRyYW5zbGF0ZSgtMC45OTI2MjYzOCwtMS4xNzQxODEpIiBpZD0ibGF5ZXIxIj4mI3hhOyAgICA8ZyB0cmFuc2Zvcm09Im1hdHJpeCgxLjAxNDg4ODcsMCwwLDEuMDE0ODg4NywxNi45MDIxNDYsLTIuNjk4NzI2KSIgaWQ9Imc3MCI+JiN4YTsgICAgICA8cGF0aCBzdHlsZT0iZmlsbDojMzI2Y2U1O2ZpbGwtb3BhY2l0eToxO3N0cm9rZTpub25lO3N0cm9rZS13aWR0aDowO3N0cm9rZS1taXRlcmxpbWl0OjQ7c3Ryb2tlLWRhc2hhcnJheTpub25lO3N0cm9rZS1vcGFjaXR5OjEiIGQ9Im0gLTYuODQ5MjAxNSw0LjI3MjQ2NjggYSAxLjExOTEyNTUsMS4xMDk5NjcxIDAgMCAwIC0wLjQyODg4MTgsMC4xMDg1MzAzIGwgLTUuODUyNDAzNywyLjc5NjMzOTQgYSAxLjExOTEyNTUsMS4xMDk5NjcxIDAgMCAwIC0wLjYwNTUyNCwwLjc1Mjk3NTkgbCAtMS40NDM4MjgsNi4yODEyODQ2IGEgMS4xMTkxMjU1LDEuMTA5OTY3MSAwIDAgMCAwLjE1MTk0MywwLjg1MTAyOCAxLjExOTEyNTUsMS4xMDk5NjcxIDAgMCAwIDAuMDYzNjIsMC4wODgzMiBsIDQuMDUwOCw1LjAzNjU1NSBhIDEuMTE5MTI1NSwxLjEwOTk2NzEgMCAwIDAgMC44NzQ5NzksMC40MTc2NTQgbCA2LjQ5NjEwMTEsLTAuMDAxNSBhIDEuMTE5MTI1NSwxLjEwOTk2NzEgMCAwIDAgMC44NzQ5Nzg4LC0wLjQxNjkwNiBMIDEuMzgxODg3MiwxNS4xNDk0NTMgQSAxLjExOTEyNTUsMS4xMDk5NjcxIDAgMCAwIDEuNTk4MTk4NiwxNC4yMTAxMDQgTCAwLjE1MjEyNjU3LDcuOTI4ODE1NCBBIDEuMTE5MTI1NSwxLjEwOTk2NzEgMCAwIDAgLTAuNDUzMzk3OTQsNy4xNzU4Mzk2IEwgLTYuMzA2NTQ5Niw0LjM4MDk5NzEgQSAxLjExOTEyNTUsMS4xMDk5NjcxIDAgMCAwIC02Ljg0OTIwMTUsNC4yNzI0NjY4IFoiIGlkPSJwYXRoMzA1NSIvPiYjeGE7ICAgICAgPHBhdGggdGV4dC1hbmNob3I9InN0YXJ0IiBzdHlsZT0iY29sb3I6IzAwMDAwMDtmb250LXN0eWxlOm5vcm1hbDtmb250LXZhcmlhbnQ6bm9ybWFsO2ZvbnQtd2VpZ2h0Om5vcm1hbDtmb250LXN0cmV0Y2g6bm9ybWFsO2ZvbnQtc2l6ZTptZWRpdW07bGluZS1oZWlnaHQ6bm9ybWFsO2ZvbnQtZmFtaWx5OlNhbnM7LWlua3NjYXBlLWZvbnQtc3BlY2lmaWNhdGlvbjpTYW5zO3RleHQtaW5kZW50OjA7dGV4dC1hbGlnbjpzdGFydDt0ZXh0LWRlY29yYXRpb246bm9uZTt0ZXh0LWRlY29yYXRpb24tbGluZTpub25lO2xldHRlci1zcGFjaW5nOm5vcm1hbDt3b3JkLXNwYWNpbmc6bm9ybWFsO3RleHQtdHJhbnNmb3JtOm5vbmU7d3JpdGluZy1tb2RlOmxyLXRiO2RpcmVjdGlvbjpsdHI7YmFzZWxpbmUtc2hpZnQ6YmFzZWxpbmU7ZGlzcGxheTppbmxpbmU7b3ZlcmZsb3c6dmlzaWJsZTt2aXNpYmlsaXR5OnZpc2libGU7ZmlsbDojZmZmZmZmO2ZpbGwtb3BhY2l0eToxO2ZpbGwtcnVsZTpub256ZXJvO3N0cm9rZTpub25lO3N0cm9rZS13aWR0aDowO3N0cm9rZS1taXRlcmxpbWl0OjQ7c3Ryb2tlLWRhc2hhcnJheTpub25lO21hcmtlcjpub25lO2VuYWJsZS1iYWNrZ3JvdW5kOmFjY3VtdWxhdGUiIGQ9Ik0gLTYuODUyMzQzNSwzLjgxNzYzNzIgQSAxLjE4MTQzMDQsMS4xNzE3NjIgMCAwIDAgLTcuMzA0NDI4NCwzLjkzMjkwNCBsIC02LjE3ODc0MjYsMi45NTEyNzU4IGEgMS4xODE0MzA0LDEuMTcxNzYyIDAgMCAwIC0wLjYzOTIwNiwwLjc5NDg5MSBsIC0xLjUyMzkxNSw2LjYzMDgyODIgYSAxLjE4MTQzMDQsMS4xNzE3NjIgMCAwIDAgMC4xNjAxNzUsMC44OTg5MyAxLjE4MTQzMDQsMS4xNzE3NjIgMCAwIDAgMC4wNjczNiwwLjA5MjgxIGwgNC4yNzYwOTQsNS4zMTcyMzYgYSAxLjE4MTQzMDQsMS4xNzE3NjIgMCAwIDAgMC45MjM2MywwLjQ0MDg1OCBsIDYuODU3NjE4OCwtMC4wMDE1IGEgMS4xODE0MzA0LDEuMTcxNzYyIDAgMCAwIDAuOTIzNjMwOCwtMC40NDAxMSBsIDQuMjc0NTk2NiwtNS4zMTc5ODUgYSAxLjE4MTQzMDQsMS4xNzE3NjIgMCAwIDAgMC4yMjgyODgsLTAuOTkwOTkzIEwgMC41Mzg5NDQzOSw3LjY3NzU3MzggQSAxLjE4MTQzMDQsMS4xNzE3NjIgMCAwIDAgLTAuMTAwMjYxMDEsNi44ODM0MzEzIEwgLTYuMjc5MDAzNywzLjkzMjE1NTUgQSAxLjE4MTQzMDQsMS4xNzE3NjIgMCAwIDAgLTYuODUyMzQzNSwzLjgxNzYzNzIgWiBtIDAuMDAyOTksMC40NTUwNzg5IGEgMS4xMTkxMjU1LDEuMTA5OTY3MSAwIDAgMSAwLjU0MjY1MTcsMC4xMDg1MzAzIGwgNS44NTMxNTE2OSwyLjc5NDg0MjUgQSAxLjExOTEyNTUsMS4xMDk5NjcxIDAgMCAxIDAuMTUxOTc4MTEsNy45MjkwNjQ4IEwgMS41OTgwNTEsMTQuMjEwMzUgYSAxLjExOTEyNTUsMS4xMDk5NjcxIDAgMCAxIC0wLjIxNjMxMjMsMC45MzkzNDggbCAtNC4wNDkzMDMyLDUuMDM3MzA0IGEgMS4xMTkxMjU1LDEuMTA5OTY3MSAwIDAgMSAtMC44NzQ5Nzg5LDAuNDE2OTA2IGwgLTYuNDk2MTAwNiwwLjAwMTUgYSAxLjExOTEyNTUsMS4xMDk5NjcxIDAgMCAxIC0wLjg3NDk3OSwtMC40MTc2NTIgbCAtNC4wNTA4LC01LjAzNjU1NCBhIDEuMTE5MTI1NSwxLjEwOTk2NzEgMCAwIDEgLTAuMDYzNjIsLTAuMDg4MzIgMS4xMTkxMjU1LDEuMTA5OTY3MSAwIDAgMSAtMC4xNTE5NDIsLTAuODUxMDI4IGwgMS40NDM4MjcsLTYuMjgxMjg1MyBhIDEuMTE5MTI1NSwxLjEwOTk2NzEgMCAwIDEgMC42MDU1MjQsLTAuNzUyOTc1OCBsIDUuODUyNDAzNiwtMi43OTYzMzk1IGEgMS4xMTkxMjU1LDEuMTA5OTY3MSAwIDAgMSAwLjQyODg4MTksLTAuMTA4NTMwMyB6IiBpZD0icGF0aDMwNTQtMi05Ii8+JiN4YTsgICAgPC9nPiYjeGE7ICAgIDx0ZXh0IHhtbDpzcGFjZT0icHJlc2VydmUiIHN0eWxlPSJmb250LXN0eWxlOm5vcm1hbDtmb250LXdlaWdodDpub3JtYWw7Zm9udC1zaXplOjEwLjU4MzMzMzAycHg7bGluZS1oZWlnaHQ6Ni42MTQ1ODM0OXB4O2ZvbnQtZmFtaWx5OlNhbnM7bGV0dGVyLXNwYWNpbmc6MHB4O3dvcmQtc3BhY2luZzowcHg7ZmlsbDojZmZmZmZmO2ZpbGwtb3BhY2l0eToxO3N0cm9rZTpub25lO3N0cm9rZS13aWR0aDowLjI2NDU4MzMycHg7c3Ryb2tlLWxpbmVjYXA6YnV0dDtzdHJva2UtbGluZWpvaW46bWl0ZXI7c3Ryb2tlLW9wYWNpdHk6MSIgeD0iMTAuMTMwODcyIiB5PSIxNi44MTE3NzUiIGlkPSJ0ZXh0MjA2NiI+PHRzcGFuIGlkPSJ0c3BhbjIwNjQiIHg9IjEwLjEzMDg3MiIgeT0iMTYuODExNzc1IiB0ZXh0LWFuY2hvcj0ibWlkZGxlIiBzdHlsZT0iZm9udC1zdHlsZTpub3JtYWw7Zm9udC12YXJpYW50Om5vcm1hbDtmb250LXdlaWdodDpub3JtYWw7Zm9udC1zdHJldGNoOm5vcm1hbDtmb250LXNpemU6Mi44MjIyMjIyM3B4O2ZvbnQtZmFtaWx5OkFyaWFsOy1pbmtzY2FwZS1mb250LXNwZWNpZmljYXRpb246J0FyaWFsLCBOb3JtYWwnO3RleHQtYWxpZ246Y2VudGVyO3dyaXRpbmctbW9kZTpsci10YjtmaWxsOiNmZmZmZmY7ZmlsbC1vcGFjaXR5OjE7c3Ryb2tlLXdpZHRoOjAuMjY0NTgzMzJweCI+am9iPC90c3Bhbj48L3RleHQ+JiN4YTsgICAgPGcgdHJhbnNmb3JtPSJ0cmFuc2xhdGUoMC4zMDQwNTYzNSwwKSIgaWQ9ImczMzQ1Ij4mI3hhOyAgICAgIDxyZWN0IHN0eWxlPSJvcGFjaXR5OjE7ZmlsbDojZmZmZmZmO2ZpbGwtb3BhY2l0eToxO2ZpbGwtcnVsZTpub256ZXJvO3N0cm9rZTpub25lO3N0cm9rZS13aWR0aDowLjcwODk5OTk5O3N0cm9rZS1saW5lY2FwOmJ1dHQ7c3Ryb2tlLWxpbmVqb2luOnJvdW5kO3N0cm9rZS1taXRlcmxpbWl0OjEwO3N0cm9rZS1kYXNoYXJyYXk6MS40MTgwMDAwMiwgMS40MTgwMDAwMjtzdHJva2UtZGFzaG9mZnNldDoyMy4wNDUyOTE5O3N0cm9rZS1vcGFjaXR5OjEiIGlkPSJyZWN0ODk3MSIgd2lkdGg9IjIuMjAyOTkyNyIgaGVpZ2h0PSIyLjE0MjY3MTMiIHg9IjUuNDUyNzMyMSIgeT0iMTAuODc3ODQ2Ii8+JiN4YTsgICAgICA8cmVjdCB5PSIxMC44Nzc4NDYiIHg9IjguNjA0NzQxMSIgaGVpZ2h0PSIyLjE0MjY3MTMiIHdpZHRoPSIyLjIwMjk5MjciIGlkPSJyZWN0ODk3MyIgc3R5bGU9Im9wYWNpdHk6MTtmaWxsOiNmZmZmZmY7ZmlsbC1vcGFjaXR5OjE7ZmlsbC1ydWxlOm5vbnplcm87c3Ryb2tlOm5vbmU7c3Ryb2tlLXdpZHRoOjAuNzA4OTk5OTk7c3Ryb2tlLWxpbmVjYXA6YnV0dDtzdHJva2UtbGluZWpvaW46cm91bmQ7c3Ryb2tlLW1pdGVybGltaXQ6MTA7c3Ryb2tlLWRhc2hhcnJheToxLjQxODAwMDAyLCAxLjQxODAwMDAyO3N0cm9rZS1kYXNob2Zmc2V0OjIzLjA0NTI5MTk7c3Ryb2tlLW9wYWNpdHk6MSIvPiYjeGE7ICAgICAgPHJlY3Qgc3R5bGU9Im9wYWNpdHk6MTtmaWxsOiNmZmZmZmY7ZmlsbC1vcGFjaXR5OjE7ZmlsbC1ydWxlOm5vbnplcm87c3Ryb2tlOm5vbmU7c3Ryb2tlLXdpZHRoOjAuNzA4OTk5OTk7c3Ryb2tlLWxpbmVjYXA6YnV0dDtzdHJva2UtbGluZWpvaW46cm91bmQ7c3Ryb2tlLW1pdGVybGltaXQ6MTA7c3Ryb2tlLWRhc2hhcnJheToxLjQxODAwMDAyLCAxLjQxODAwMDAyO3N0cm9rZS1kYXNob2Zmc2V0OjIzLjA0NTI5MTk7c3Ryb2tlLW9wYWNpdHk6MSIgaWQ9InJlY3Q4OTc1IiB3aWR0aD0iMi4yMDI5OTI3IiBoZWlnaHQ9IjIuMTQyNjcxMyIgeD0iMTEuNzU2NzQ5IiB5PSIxMC44Nzc4NDYiLz4mI3hhOyAgICAgIDxyZWN0IHk9IjcuNzI3NjUzNSIgeD0iMTEuNzU2NzQ5IiBoZWlnaHQ9IjIuMTQyNjcxMyIgd2lkdGg9IjIuMjAyOTkyNyIgaWQ9InJlY3Q4OTc3IiBzdHlsZT0ib3BhY2l0eToxO2ZpbGw6I2ZmZmZmZjtmaWxsLW9wYWNpdHk6MTtmaWxsLXJ1bGU6bm9uemVybztzdHJva2U6bm9uZTtzdHJva2Utd2lkdGg6MC43MDg5OTk5OTtzdHJva2UtbGluZWNhcDpidXR0O3N0cm9rZS1saW5lam9pbjpyb3VuZDtzdHJva2UtbWl0ZXJsaW1pdDoxMDtzdHJva2UtZGFzaGFycmF5OjEuNDE4MDAwMDIsIDEuNDE4MDAwMDI7c3Ryb2tlLWRhc2hvZmZzZXQ6MjMuMDQ1MjkxOTtzdHJva2Utb3BhY2l0eToxIi8+JiN4YTsgICAgICA8cmVjdCBzdHlsZT0ib3BhY2l0eToxO2ZpbGw6I2ZmZmZmZjtmaWxsLW9wYWNpdHk6MTtmaWxsLXJ1bGU6bm9uemVybztzdHJva2U6bm9uZTtzdHJva2Utd2lkdGg6MC43MDg5OTk5OTtzdHJva2UtbGluZWNhcDpidXR0O3N0cm9rZS1saW5lam9pbjpyb3VuZDtzdHJva2UtbWl0ZXJsaW1pdDoxMDtzdHJva2UtZGFzaGFycmF5OjEuNDE4MDAwMDIsIDEuNDE4MDAwMDI7c3Ryb2tlLWRhc2hvZmZzZXQ6MjMuMDQ1MjkxOTtzdHJva2Utb3BhY2l0eToxIiBpZD0icmVjdDg5NzkiIHdpZHRoPSIyLjIwMjk5MjciIGhlaWdodD0iMi4xNDI2NzEzIiB4PSI4LjYxNDgxMjkiIHk9IjcuNzYwNzI2OSIvPiYjeGE7ICAgICAgPHJlY3QgeT0iNy43NjA3MjY5IiB4PSI1LjQ3Mjg4OTkiIGhlaWdodD0iMi4xNDI2NzEzIiB3aWR0aD0iMi4yMDI5OTI3IiBpZD0icmVjdDg5ODEiIHN0eWxlPSJvcGFjaXR5OjE7ZmlsbDojZmZmZmZmO2ZpbGwtb3BhY2l0eToxO2ZpbGwtcnVsZTpub256ZXJvO3N0cm9rZTpub25lO3N0cm9rZS13aWR0aDowLjcwODk5OTk5O3N0cm9rZS1saW5lY2FwOmJ1dHQ7c3Ryb2tlLWxpbmVqb2luOnJvdW5kO3N0cm9rZS1taXRlcmxpbWl0OjEwO3N0cm9rZS1kYXNoYXJyYXk6MS40MTgwMDAwMiwgMS40MTgwMDAwMjtzdHJva2UtZGFzaG9mZnNldDoyMy4wNDUyOTE5O3N0cm9rZS1vcGFjaXR5OjEiLz4mI3hhOyAgICAgIDxyZWN0IHN0eWxlPSJvcGFjaXR5OjE7ZmlsbDojZmZmZmZmO2ZpbGwtb3BhY2l0eToxO2ZpbGwtcnVsZTpub256ZXJvO3N0cm9rZTpub25lO3N0cm9rZS13aWR0aDowLjcwODk5OTk5O3N0cm9rZS1saW5lY2FwOmJ1dHQ7c3Ryb2tlLWxpbmVqb2luOnJvdW5kO3N0cm9rZS1taXRlcmxpbWl0OjEwO3N0cm9rZS1kYXNoYXJyYXk6MS40MTgwMDAwMiwgMS40MTgwMDAwMjtzdHJva2UtZGFzaG9mZnNldDoyMy4wNDUyOTE5O3N0cm9rZS1vcGFjaXR5OjEiIGlkPSJyZWN0ODk4MyIgd2lkdGg9IjIuMjAyOTkyNyIgaGVpZ2h0PSIyLjE0MjY3MTMiIHg9IjExLjc1Njc0OSIgeT0iNC42NDM2MDA1Ii8+JiN4YTsgICAgPC9nPiYjeGE7ICA8L2c+JiN4YTs8L3N2Zz4=;" parent="1" vertex="1">
          <mxGeometry x="510" y="331" width="70" height="70" as="geometry" />
        </mxCell>
        <mxCell id="HPqKZyKz4oHkFwGDCJG2-23" value="Periodically&lt;br&gt;&amp;nbsp;creates" style="text;html=1;align=center;verticalAlign=middle;resizable=0;points=[];autosize=1;strokeColor=none;fillColor=none;" parent="1" vertex="1">
          <mxGeometry x="430" y="347" width="80" height="40" as="geometry" />
        </mxCell>
        <mxCell id="HPqKZyKz4oHkFwGDCJG2-29" style="edgeStyle=orthogonalEdgeStyle;rounded=0;orthogonalLoop=1;jettySize=auto;html=1;entryX=1;entryY=0.5;entryDx=0;entryDy=0;dashed=1;fillColor=#f5f5f5;strokeColor=#666666;" parent="1" source="HPqKZyKz4oHkFwGDCJG2-24" target="HPqKZyKz4oHkFwGDCJG2-18" edge="1">
          <mxGeometry relative="1" as="geometry">
            <Array as="points">
              <mxPoint x="674" y="450" />
              <mxPoint x="555" y="450" />
            </Array>
          </mxGeometry>
        </mxCell>
        <mxCell id="HPqKZyKz4oHkFwGDCJG2-28" value="Creates" style="text;html=1;align=center;verticalAlign=middle;resizable=0;points=[];autosize=1;strokeColor=none;fillColor=none;" parent="1" vertex="1">
          <mxGeometry x="570" y="340" width="70" height="30" as="geometry" />
        </mxCell>
        <mxCell id="HPqKZyKz4oHkFwGDCJG2-30" value="Attached" style="text;html=1;align=center;verticalAlign=middle;resizable=0;points=[];autosize=1;strokeColor=none;fillColor=none;" parent="1" vertex="1">
          <mxGeometry x="584.5" y="450" width="70" height="30" as="geometry" />
        </mxCell>
        <mxCell id="HPqKZyKz4oHkFwGDCJG2-40" style="rounded=0;orthogonalLoop=1;jettySize=auto;html=1;entryX=1;entryY=0.5;entryDx=0;entryDy=0;dashed=1;dashPattern=1 1;" parent="1" target="HPqKZyKz4oHkFwGDCJG2-24" edge="1">
          <mxGeometry relative="1" as="geometry">
            <mxPoint x="700.0345024988642" y="373.98" as="sourcePoint" />
          </mxGeometry>
        </mxCell>
        <mxCell id="HPqKZyKz4oHkFwGDCJG2-43" value="" style="shape=image;verticalLabelPosition=bottom;labelBackgroundColor=default;verticalAlign=top;aspect=fixed;imageAspect=0;image=data:image/svg+xml,PHN2ZyB4bWxucz0iaHR0cDovL3d3dy53My5vcmcvMjAwMC9zdmciIGlkPSJzdmcxMzgyNiIgdmVyc2lvbj0iMS4xIiB2aWV3Qm94PSIwIDAgMTguMDM1MzM0IDE3LjUwMDM3OCIgaGVpZ2h0PSIxNy41MDAzNzhtbSIgd2lkdGg9IjE4LjAzNTMzNG1tIj4mI3hhOyAgPGRlZnMgaWQ9ImRlZnMxMzgyMCIvPiYjeGE7ICAmI3hhOyAgPG1ldGFkYXRhIGlkPSJtZXRhZGF0YTEzODIzIj4mI3hhOyAgICAmI3hhOyAgICAgICYjeGE7ICAgICAgICBpbWFnZS9zdmcreG1sJiN4YTsgICAgICAgICYjeGE7ICAgICAgICAmI3hhOyAgICAgICYjeGE7ICAgICYjeGE7ICA8L21ldGFkYXRhPiYjeGE7ICA8ZyB0cmFuc2Zvcm09InRyYW5zbGF0ZSgtMC45OTI2MjYzOCwtMS4xNzQxODEpIiBpZD0ibGF5ZXIxIj4mI3hhOyAgICA8ZyB0cmFuc2Zvcm09Im1hdHJpeCgxLjAxNDg4ODcsMCwwLDEuMDE0ODg4NywxNi45MDIxNDYsLTIuNjk4NzI2KSIgaWQ9Imc3MCI+JiN4YTsgICAgICA8cGF0aCBzdHlsZT0iZmlsbDojMzI2Y2U1O2ZpbGwtb3BhY2l0eToxO3N0cm9rZTpub25lO3N0cm9rZS13aWR0aDowO3N0cm9rZS1taXRlcmxpbWl0OjQ7c3Ryb2tlLWRhc2hhcnJheTpub25lO3N0cm9rZS1vcGFjaXR5OjEiIGQ9Im0gLTYuODQ5MjAxNSw0LjI3MjQ2NjggYSAxLjExOTEyNTUsMS4xMDk5NjcxIDAgMCAwIC0wLjQyODg4MTgsMC4xMDg1MzAzIGwgLTUuODUyNDAzNywyLjc5NjMzOTQgYSAxLjExOTEyNTUsMS4xMDk5NjcxIDAgMCAwIC0wLjYwNTUyNCwwLjc1Mjk3NTkgbCAtMS40NDM4MjgsNi4yODEyODQ2IGEgMS4xMTkxMjU1LDEuMTA5OTY3MSAwIDAgMCAwLjE1MTk0MywwLjg1MTAyOCAxLjExOTEyNTUsMS4xMDk5NjcxIDAgMCAwIDAuMDYzNjIsMC4wODgzMiBsIDQuMDUwOCw1LjAzNjU1NSBhIDEuMTE5MTI1NSwxLjEwOTk2NzEgMCAwIDAgMC44NzQ5NzksMC40MTc2NTQgbCA2LjQ5NjEwMTEsLTAuMDAxNSBhIDEuMTE5MTI1NSwxLjEwOTk2NzEgMCAwIDAgMC44NzQ5Nzg4LC0wLjQxNjkwNiBMIDEuMzgxODg3MiwxNS4xNDk0NTMgQSAxLjExOTEyNTUsMS4xMDk5NjcxIDAgMCAwIDEuNTk4MTk4NiwxNC4yMTAxMDQgTCAwLjE1MjEyNjU3LDcuOTI4ODE1NCBBIDEuMTE5MTI1NSwxLjEwOTk2NzEgMCAwIDAgLTAuNDUzMzk3OTQsNy4xNzU4Mzk2IEwgLTYuMzA2NTQ5Niw0LjM4MDk5NzEgQSAxLjExOTEyNTUsMS4xMDk5NjcxIDAgMCAwIC02Ljg0OTIwMTUsNC4yNzI0NjY4IFoiIGlkPSJwYXRoMzA1NSIvPiYjeGE7ICAgICAgPHBhdGggdGV4dC1hbmNob3I9InN0YXJ0IiBzdHlsZT0iY29sb3I6IzAwMDAwMDtmb250LXN0eWxlOm5vcm1hbDtmb250LXZhcmlhbnQ6bm9ybWFsO2ZvbnQtd2VpZ2h0Om5vcm1hbDtmb250LXN0cmV0Y2g6bm9ybWFsO2ZvbnQtc2l6ZTptZWRpdW07bGluZS1oZWlnaHQ6bm9ybWFsO2ZvbnQtZmFtaWx5OlNhbnM7LWlua3NjYXBlLWZvbnQtc3BlY2lmaWNhdGlvbjpTYW5zO3RleHQtaW5kZW50OjA7dGV4dC1hbGlnbjpzdGFydDt0ZXh0LWRlY29yYXRpb246bm9uZTt0ZXh0LWRlY29yYXRpb24tbGluZTpub25lO2xldHRlci1zcGFjaW5nOm5vcm1hbDt3b3JkLXNwYWNpbmc6bm9ybWFsO3RleHQtdHJhbnNmb3JtOm5vbmU7d3JpdGluZy1tb2RlOmxyLXRiO2RpcmVjdGlvbjpsdHI7YmFzZWxpbmUtc2hpZnQ6YmFzZWxpbmU7ZGlzcGxheTppbmxpbmU7b3ZlcmZsb3c6dmlzaWJsZTt2aXNpYmlsaXR5OnZpc2libGU7ZmlsbDojZmZmZmZmO2ZpbGwtb3BhY2l0eToxO2ZpbGwtcnVsZTpub256ZXJvO3N0cm9rZTpub25lO3N0cm9rZS13aWR0aDowO3N0cm9rZS1taXRlcmxpbWl0OjQ7c3Ryb2tlLWRhc2hhcnJheTpub25lO21hcmtlcjpub25lO2VuYWJsZS1iYWNrZ3JvdW5kOmFjY3VtdWxhdGUiIGQ9Ik0gLTYuODUyMzQzNSwzLjgxNzYzNzIgQSAxLjE4MTQzMDQsMS4xNzE3NjIgMCAwIDAgLTcuMzA0NDI4NCwzLjkzMjkwNCBsIC02LjE3ODc0MjYsMi45NTEyNzU4IGEgMS4xODE0MzA0LDEuMTcxNzYyIDAgMCAwIC0wLjYzOTIwNiwwLjc5NDg5MSBsIC0xLjUyMzkxNSw2LjYzMDgyODIgYSAxLjE4MTQzMDQsMS4xNzE3NjIgMCAwIDAgMC4xNjAxNzUsMC44OTg5MyAxLjE4MTQzMDQsMS4xNzE3NjIgMCAwIDAgMC4wNjczNiwwLjA5MjgxIGwgNC4yNzYwOTQsNS4zMTcyMzYgYSAxLjE4MTQzMDQsMS4xNzE3NjIgMCAwIDAgMC45MjM2MywwLjQ0MDg1OCBsIDYuODU3NjE4OCwtMC4wMDE1IGEgMS4xODE0MzA0LDEuMTcxNzYyIDAgMCAwIDAuOTIzNjMwOCwtMC40NDAxMSBsIDQuMjc0NTk2NiwtNS4zMTc5ODUgYSAxLjE4MTQzMDQsMS4xNzE3NjIgMCAwIDAgMC4yMjgyODgsLTAuOTkwOTkzIEwgMC41Mzg5NDQzOSw3LjY3NzU3MzggQSAxLjE4MTQzMDQsMS4xNzE3NjIgMCAwIDAgLTAuMTAwMjYxMDEsNi44ODM0MzEzIEwgLTYuMjc5MDAzNywzLjkzMjE1NTUgQSAxLjE4MTQzMDQsMS4xNzE3NjIgMCAwIDAgLTYuODUyMzQzNSwzLjgxNzYzNzIgWiBtIDAuMDAyOTksMC40NTUwNzg5IGEgMS4xMTkxMjU1LDEuMTA5OTY3MSAwIDAgMSAwLjU0MjY1MTcsMC4xMDg1MzAzIGwgNS44NTMxNTE2OSwyLjc5NDg0MjUgQSAxLjExOTEyNTUsMS4xMDk5NjcxIDAgMCAxIDAuMTUxOTc4MTEsNy45MjkwNjQ4IEwgMS41OTgwNTEsMTQuMjEwMzUgYSAxLjExOTEyNTUsMS4xMDk5NjcxIDAgMCAxIC0wLjIxNjMxMjMsMC45MzkzNDggbCAtNC4wNDkzMDMyLDUuMDM3MzA0IGEgMS4xMTkxMjU1LDEuMTA5OTY3MSAwIDAgMSAtMC44NzQ5Nzg5LDAuNDE2OTA2IGwgLTYuNDk2MTAwNiwwLjAwMTUgYSAxLjExOTEyNTUsMS4xMDk5NjcxIDAgMCAxIC0wLjg3NDk3OSwtMC40MTc2NTIgbCAtNC4wNTA4LC01LjAzNjU1NCBhIDEuMTE5MTI1NSwxLjEwOTk2NzEgMCAwIDEgLTAuMDYzNjIsLTAuMDg4MzIgMS4xMTkxMjU1LDEuMTA5OTY3MSAwIDAgMSAtMC4xNTE5NDIsLTAuODUxMDI4IGwgMS40NDM4MjcsLTYuMjgxMjg1MyBhIDEuMTE5MTI1NSwxLjEwOTk2NzEgMCAwIDEgMC42MDU1MjQsLTAuNzUyOTc1OCBsIDUuODUyNDAzNiwtMi43OTYzMzk1IGEgMS4xMTkxMjU1LDEuMTA5OTY3MSAwIDAgMSAwLjQyODg4MTksLTAuMTA4NTMwMyB6IiBpZD0icGF0aDMwNTQtMi05Ii8+JiN4YTsgICAgPC9nPiYjeGE7ICAgIDx0ZXh0IHhtbDpzcGFjZT0icHJlc2VydmUiIHN0eWxlPSJmb250LXN0eWxlOm5vcm1hbDtmb250LXdlaWdodDpub3JtYWw7Zm9udC1zaXplOjEwLjU4MzMzMzAycHg7bGluZS1oZWlnaHQ6Ni42MTQ1ODM0OXB4O2ZvbnQtZmFtaWx5OlNhbnM7bGV0dGVyLXNwYWNpbmc6MHB4O3dvcmQtc3BhY2luZzowcHg7ZmlsbDojZmZmZmZmO2ZpbGwtb3BhY2l0eToxO3N0cm9rZTpub25lO3N0cm9rZS13aWR0aDowLjI2NDU4MzMycHg7c3Ryb2tlLWxpbmVjYXA6YnV0dDtzdHJva2UtbGluZWpvaW46bWl0ZXI7c3Ryb2tlLW9wYWNpdHk6MSIgeD0iOS45NzE3MDgzIiB5PSIxNi44MTE3NzUiIGlkPSJ0ZXh0MjA2NiI+PHRzcGFuIGlkPSJ0c3BhbjIwNjQiIHg9IjkuOTcxNzA4MyIgeT0iMTYuODExNzc1IiB0ZXh0LWFuY2hvcj0ibWlkZGxlIiBzdHlsZT0iZm9udC1zdHlsZTpub3JtYWw7Zm9udC12YXJpYW50Om5vcm1hbDtmb250LXdlaWdodDpub3JtYWw7Zm9udC1zdHJldGNoOm5vcm1hbDtmb250LXNpemU6Mi44MjIyMjIyM3B4O2ZvbnQtZmFtaWx5OkFyaWFsOy1pbmtzY2FwZS1mb250LXNwZWNpZmljYXRpb246J0FyaWFsLCBOb3JtYWwnO3RleHQtYWxpZ246Y2VudGVyO3dyaXRpbmctbW9kZTpsci10YjtmaWxsOiNmZmZmZmY7ZmlsbC1vcGFjaXR5OjE7c3Ryb2tlLXdpZHRoOjAuMjY0NTgzMzJweCI+bnM8L3RzcGFuPjwvdGV4dD4mI3hhOyAgICA8cmVjdCBzdHlsZT0ib3BhY2l0eToxO2ZpbGw6bm9uZTtmaWxsLW9wYWNpdHk6MTtmaWxsLXJ1bGU6bm9uemVybztzdHJva2U6I2ZmZmZmZjtzdHJva2Utd2lkdGg6MC40MDAwMDAwMTtzdHJva2UtbGluZWNhcDpidXR0O3N0cm9rZS1saW5lam9pbjpyb3VuZDtzdHJva2UtbWl0ZXJsaW1pdDoxMDtzdHJva2UtZGFzaGFycmF5OjAuODAwMDAwMDEsIDAuNDtzdHJva2UtZGFzaG9mZnNldDozLjQ0MDAwMDA2O3N0cm9rZS1vcGFjaXR5OjEiIGlkPSJyZWN0ODc5MCIgd2lkdGg9IjcuNjczNTg5MiIgaGVpZ2h0PSI2LjY5MDA3OTIiIHg9IjYuMTczNDk4NiIgeT0iNi4zNjg5NjI4Ii8+JiN4YTsgIDwvZz4mI3hhOzwvc3ZnPg==;" parent="1" vertex="1">
          <mxGeometry y="383" width="48" height="48" as="geometry" />
        </mxCell>
        <mxCell id="HPqKZyKz4oHkFwGDCJG2-46" value="Operator-&lt;br&gt;system" style="text;html=1;align=center;verticalAlign=middle;resizable=0;points=[];autosize=1;strokeColor=none;fillColor=none;" parent="1" vertex="1">
          <mxGeometry x="40" y="399" width="70" height="40" as="geometry" />
        </mxCell>
        <mxCell id="HPqKZyKz4oHkFwGDCJG2-49" value="" style="shape=image;verticalLabelPosition=bottom;labelBackgroundColor=default;verticalAlign=top;aspect=fixed;imageAspect=0;image=data:image/svg+xml,PHN2ZyB4bWxucz0iaHR0cDovL3d3dy53My5vcmcvMjAwMC9zdmciIGlkPSJzdmcxMzgyNiIgdmVyc2lvbj0iMS4xIiB2aWV3Qm94PSIwIDAgMTguMDM1MzM0IDE3LjUwMDM3OCIgaGVpZ2h0PSIxNy41MDAzNzhtbSIgd2lkdGg9IjE4LjAzNTMzNG1tIj4mI3hhOyAgPGRlZnMgaWQ9ImRlZnMxMzgyMCIvPiYjeGE7ICAmI3hhOyAgPG1ldGFkYXRhIGlkPSJtZXRhZGF0YTEzODIzIj4mI3hhOyAgICAmI3hhOyAgICAgICYjeGE7ICAgICAgICBpbWFnZS9zdmcreG1sJiN4YTsgICAgICAgICYjeGE7ICAgICAgICAmI3hhOyAgICAgICYjeGE7ICAgICYjeGE7ICA8L21ldGFkYXRhPiYjeGE7ICA8ZyB0cmFuc2Zvcm09InRyYW5zbGF0ZSgtMC45OTI2MjYzOCwtMS4xNzQxODEpIiBpZD0ibGF5ZXIxIj4mI3hhOyAgICA8ZyB0cmFuc2Zvcm09Im1hdHJpeCgxLjAxNDg4ODcsMCwwLDEuMDE0ODg4NywxNi45MDIxNDYsLTIuNjk4NzI2KSIgaWQ9Imc3MCI+JiN4YTsgICAgICA8cGF0aCBzdHlsZT0iZmlsbDojMzI2Y2U1O2ZpbGwtb3BhY2l0eToxO3N0cm9rZTpub25lO3N0cm9rZS13aWR0aDowO3N0cm9rZS1taXRlcmxpbWl0OjQ7c3Ryb2tlLWRhc2hhcnJheTpub25lO3N0cm9rZS1vcGFjaXR5OjEiIGQ9Im0gLTYuODQ5MjAxNSw0LjI3MjQ2NjggYSAxLjExOTEyNTUsMS4xMDk5NjcxIDAgMCAwIC0wLjQyODg4MTgsMC4xMDg1MzAzIGwgLTUuODUyNDAzNywyLjc5NjMzOTQgYSAxLjExOTEyNTUsMS4xMDk5NjcxIDAgMCAwIC0wLjYwNTUyNCwwLjc1Mjk3NTkgbCAtMS40NDM4MjgsNi4yODEyODQ2IGEgMS4xMTkxMjU1LDEuMTA5OTY3MSAwIDAgMCAwLjE1MTk0MywwLjg1MTAyOCAxLjExOTEyNTUsMS4xMDk5NjcxIDAgMCAwIDAuMDYzNjIsMC4wODgzMiBsIDQuMDUwOCw1LjAzNjU1NSBhIDEuMTE5MTI1NSwxLjEwOTk2NzEgMCAwIDAgMC44NzQ5NzksMC40MTc2NTQgbCA2LjQ5NjEwMTEsLTAuMDAxNSBhIDEuMTE5MTI1NSwxLjEwOTk2NzEgMCAwIDAgMC44NzQ5Nzg4LC0wLjQxNjkwNiBMIDEuMzgxODg3MiwxNS4xNDk0NTMgQSAxLjExOTEyNTUsMS4xMDk5NjcxIDAgMCAwIDEuNTk4MTk4NiwxNC4yMTAxMDQgTCAwLjE1MjEyNjU3LDcuOTI4ODE1NCBBIDEuMTE5MTI1NSwxLjEwOTk2NzEgMCAwIDAgLTAuNDUzMzk3OTQsNy4xNzU4Mzk2IEwgLTYuMzA2NTQ5Niw0LjM4MDk5NzEgQSAxLjExOTEyNTUsMS4xMDk5NjcxIDAgMCAwIC02Ljg0OTIwMTUsNC4yNzI0NjY4IFoiIGlkPSJwYXRoMzA1NSIvPiYjeGE7ICAgICAgPHBhdGggdGV4dC1hbmNob3I9InN0YXJ0IiBzdHlsZT0iY29sb3I6IzAwMDAwMDtmb250LXN0eWxlOm5vcm1hbDtmb250LXZhcmlhbnQ6bm9ybWFsO2ZvbnQtd2VpZ2h0Om5vcm1hbDtmb250LXN0cmV0Y2g6bm9ybWFsO2ZvbnQtc2l6ZTptZWRpdW07bGluZS1oZWlnaHQ6bm9ybWFsO2ZvbnQtZmFtaWx5OlNhbnM7LWlua3NjYXBlLWZvbnQtc3BlY2lmaWNhdGlvbjpTYW5zO3RleHQtaW5kZW50OjA7dGV4dC1hbGlnbjpzdGFydDt0ZXh0LWRlY29yYXRpb246bm9uZTt0ZXh0LWRlY29yYXRpb24tbGluZTpub25lO2xldHRlci1zcGFjaW5nOm5vcm1hbDt3b3JkLXNwYWNpbmc6bm9ybWFsO3RleHQtdHJhbnNmb3JtOm5vbmU7d3JpdGluZy1tb2RlOmxyLXRiO2RpcmVjdGlvbjpsdHI7YmFzZWxpbmUtc2hpZnQ6YmFzZWxpbmU7ZGlzcGxheTppbmxpbmU7b3ZlcmZsb3c6dmlzaWJsZTt2aXNpYmlsaXR5OnZpc2libGU7ZmlsbDojZmZmZmZmO2ZpbGwtb3BhY2l0eToxO2ZpbGwtcnVsZTpub256ZXJvO3N0cm9rZTpub25lO3N0cm9rZS13aWR0aDowO3N0cm9rZS1taXRlcmxpbWl0OjQ7c3Ryb2tlLWRhc2hhcnJheTpub25lO21hcmtlcjpub25lO2VuYWJsZS1iYWNrZ3JvdW5kOmFjY3VtdWxhdGUiIGQ9Ik0gLTYuODUyMzQzNSwzLjgxNzYzNzIgQSAxLjE4MTQzMDQsMS4xNzE3NjIgMCAwIDAgLTcuMzA0NDI4NCwzLjkzMjkwNCBsIC02LjE3ODc0MjYsMi45NTEyNzU4IGEgMS4xODE0MzA0LDEuMTcxNzYyIDAgMCAwIC0wLjYzOTIwNiwwLjc5NDg5MSBsIC0xLjUyMzkxNSw2LjYzMDgyODIgYSAxLjE4MTQzMDQsMS4xNzE3NjIgMCAwIDAgMC4xNjAxNzUsMC44OTg5MyAxLjE4MTQzMDQsMS4xNzE3NjIgMCAwIDAgMC4wNjczNiwwLjA5MjgxIGwgNC4yNzYwOTQsNS4zMTcyMzYgYSAxLjE4MTQzMDQsMS4xNzE3NjIgMCAwIDAgMC45MjM2MywwLjQ0MDg1OCBsIDYuODU3NjE4OCwtMC4wMDE1IGEgMS4xODE0MzA0LDEuMTcxNzYyIDAgMCAwIDAuOTIzNjMwOCwtMC40NDAxMSBsIDQuMjc0NTk2NiwtNS4zMTc5ODUgYSAxLjE4MTQzMDQsMS4xNzE3NjIgMCAwIDAgMC4yMjgyODgsLTAuOTkwOTkzIEwgMC41Mzg5NDQzOSw3LjY3NzU3MzggQSAxLjE4MTQzMDQsMS4xNzE3NjIgMCAwIDAgLTAuMTAwMjYxMDEsNi44ODM0MzEzIEwgLTYuMjc5MDAzNywzLjkzMjE1NTUgQSAxLjE4MTQzMDQsMS4xNzE3NjIgMCAwIDAgLTYuODUyMzQzNSwzLjgxNzYzNzIgWiBtIDAuMDAyOTksMC40NTUwNzg5IGEgMS4xMTkxMjU1LDEuMTA5OTY3MSAwIDAgMSAwLjU0MjY1MTcsMC4xMDg1MzAzIGwgNS44NTMxNTE2OSwyLjc5NDg0MjUgQSAxLjExOTEyNTUsMS4xMDk5NjcxIDAgMCAxIDAuMTUxOTc4MTEsNy45MjkwNjQ4IEwgMS41OTgwNTEsMTQuMjEwMzUgYSAxLjExOTEyNTUsMS4xMDk5NjcxIDAgMCAxIC0wLjIxNjMxMjMsMC45MzkzNDggbCAtNC4wNDkzMDMyLDUuMDM3MzA0IGEgMS4xMTkxMjU1LDEuMTA5OTY3MSAwIDAgMSAtMC44NzQ5Nzg5LDAuNDE2OTA2IGwgLTYuNDk2MTAwNiwwLjAwMTUgYSAxLjExOTEyNTUsMS4xMDk5NjcxIDAgMCAxIC0wLjg3NDk3OSwtMC40MTc2NTIgbCAtNC4wNTA4LC01LjAzNjU1NCBhIDEuMTE5MTI1NSwxLjEwOTk2NzEgMCAwIDEgLTAuMDYzNjIsLTAuMDg4MzIgMS4xMTkxMjU1LDEuMTA5OTY3MSAwIDAgMSAtMC4xNTE5NDIsLTAuODUxMDI4IGwgMS40NDM4MjcsLTYuMjgxMjg1MyBhIDEuMTE5MTI1NSwxLjEwOTk2NzEgMCAwIDEgMC42MDU1MjQsLTAuNzUyOTc1OCBsIDUuODUyNDAzNiwtMi43OTYzMzk1IGEgMS4xMTkxMjU1LDEuMTA5OTY3MSAwIDAgMSAwLjQyODg4MTksLTAuMTA4NTMwMyB6IiBpZD0icGF0aDMwNTQtMi05Ii8+JiN4YTsgICAgPC9nPiYjeGE7ICAgIDx0ZXh0IHhtbDpzcGFjZT0icHJlc2VydmUiIHN0eWxlPSJmb250LXN0eWxlOm5vcm1hbDtmb250LXdlaWdodDpub3JtYWw7Zm9udC1zaXplOjEwLjU4MzMzMzAycHg7bGluZS1oZWlnaHQ6Ni42MTQ1ODM0OXB4O2ZvbnQtZmFtaWx5OlNhbnM7bGV0dGVyLXNwYWNpbmc6MHB4O3dvcmQtc3BhY2luZzowcHg7ZmlsbDojZmZmZmZmO2ZpbGwtb3BhY2l0eToxO3N0cm9rZTpub25lO3N0cm9rZS13aWR0aDowLjI2NDU4MzMycHg7c3Ryb2tlLWxpbmVjYXA6YnV0dDtzdHJva2UtbGluZWpvaW46bWl0ZXI7c3Ryb2tlLW9wYWNpdHk6MSIgeD0iOS45NzE3MDgzIiB5PSIxNi44MTE3NzUiIGlkPSJ0ZXh0MjA2NiI+PHRzcGFuIGlkPSJ0c3BhbjIwNjQiIHg9IjkuOTcxNzA4MyIgeT0iMTYuODExNzc1IiB0ZXh0LWFuY2hvcj0ibWlkZGxlIiBzdHlsZT0iZm9udC1zdHlsZTpub3JtYWw7Zm9udC12YXJpYW50Om5vcm1hbDtmb250LXdlaWdodDpub3JtYWw7Zm9udC1zdHJldGNoOm5vcm1hbDtmb250LXNpemU6Mi44MjIyMjIyM3B4O2ZvbnQtZmFtaWx5OkFyaWFsOy1pbmtzY2FwZS1mb250LXNwZWNpZmljYXRpb246J0FyaWFsLCBOb3JtYWwnO3RleHQtYWxpZ246Y2VudGVyO3dyaXRpbmctbW9kZTpsci10YjtmaWxsOiNmZmZmZmY7ZmlsbC1vcGFjaXR5OjE7c3Ryb2tlLXdpZHRoOjAuMjY0NTgzMzJweCI+bnM8L3RzcGFuPjwvdGV4dD4mI3hhOyAgICA8cmVjdCBzdHlsZT0ib3BhY2l0eToxO2ZpbGw6bm9uZTtmaWxsLW9wYWNpdHk6MTtmaWxsLXJ1bGU6bm9uemVybztzdHJva2U6I2ZmZmZmZjtzdHJva2Utd2lkdGg6MC40MDAwMDAwMTtzdHJva2UtbGluZWNhcDpidXR0O3N0cm9rZS1saW5lam9pbjpyb3VuZDtzdHJva2UtbWl0ZXJsaW1pdDoxMDtzdHJva2UtZGFzaGFycmF5OjAuODAwMDAwMDEsIDAuNDtzdHJva2UtZGFzaG9mZnNldDozLjQ0MDAwMDA2O3N0cm9rZS1vcGFjaXR5OjEiIGlkPSJyZWN0ODc5MCIgd2lkdGg9IjcuNjczNTg5MiIgaGVpZ2h0PSI2LjY5MDA3OTIiIHg9IjYuMTczNDk4NiIgeT0iNi4zNjg5NjI4Ii8+JiN4YTsgIDwvZz4mI3hhOzwvc3ZnPg==;" parent="1" vertex="1">
          <mxGeometry x="710" y="521" width="48" height="48" as="geometry" />
        </mxCell>
        <mxCell id="HPqKZyKz4oHkFwGDCJG2-50" value="your-project-namespace" style="text;html=1;align=center;verticalAlign=middle;resizable=0;points=[];autosize=1;strokeColor=none;fillColor=none;" parent="1" vertex="1">
          <mxGeometry x="570" y="530" width="150" height="30" as="geometry" />
        </mxCell>
        <mxCell id="HPqKZyKz4oHkFwGDCJG2-70" value="" style="shape=image;verticalLabelPosition=bottom;labelBackgroundColor=default;verticalAlign=top;aspect=fixed;imageAspect=0;image=data:image/svg+xml,PHN2ZyB4bWxucz0iaHR0cDovL3d3dy53My5vcmcvMjAwMC9zdmciIGlkPSJzdmcxMzgyNiIgdmVyc2lvbj0iMS4xIiB2aWV3Qm94PSIwIDAgMTguMDM1MzM0IDE3LjUwMDM3OCIgaGVpZ2h0PSIxNy41MDAzNzhtbSIgd2lkdGg9IjE4LjAzNTMzNG1tIj4mI3hhOyAgPGRlZnMgaWQ9ImRlZnMxMzgyMCIvPiYjeGE7ICAmI3hhOyAgPG1ldGFkYXRhIGlkPSJtZXRhZGF0YTEzODIzIj4mI3hhOyAgICAmI3hhOyAgICAgICYjeGE7ICAgICAgICBpbWFnZS9zdmcreG1sJiN4YTsgICAgICAgICYjeGE7ICAgICAgICAmI3hhOyAgICAgICYjeGE7ICAgICYjeGE7ICA8L21ldGFkYXRhPiYjeGE7ICA8ZyB0cmFuc2Zvcm09InRyYW5zbGF0ZSgtMC45OTI2MjYzOCwtMS4xNzQxODEpIiBpZD0ibGF5ZXIxIj4mI3hhOyAgICA8ZyB0cmFuc2Zvcm09Im1hdHJpeCgxLjAxNDg4ODcsMCwwLDEuMDE0ODg4NywxNi45MDIxNDYsLTIuNjk4NzI2KSIgaWQ9Imc3MCI+JiN4YTsgICAgICA8cGF0aCBzdHlsZT0iZmlsbDojMzI2Y2U1O2ZpbGwtb3BhY2l0eToxO3N0cm9rZTpub25lO3N0cm9rZS13aWR0aDowO3N0cm9rZS1taXRlcmxpbWl0OjQ7c3Ryb2tlLWRhc2hhcnJheTpub25lO3N0cm9rZS1vcGFjaXR5OjEiIGQ9Im0gLTYuODQ5MjAxNSw0LjI3MjQ2NjggYSAxLjExOTEyNTUsMS4xMDk5NjcxIDAgMCAwIC0wLjQyODg4MTgsMC4xMDg1MzAzIGwgLTUuODUyNDAzNywyLjc5NjMzOTQgYSAxLjExOTEyNTUsMS4xMDk5NjcxIDAgMCAwIC0wLjYwNTUyNCwwLjc1Mjk3NTkgbCAtMS40NDM4MjgsNi4yODEyODQ2IGEgMS4xMTkxMjU1LDEuMTA5OTY3MSAwIDAgMCAwLjE1MTk0MywwLjg1MTAyOCAxLjExOTEyNTUsMS4xMDk5NjcxIDAgMCAwIDAuMDYzNjIsMC4wODgzMiBsIDQuMDUwOCw1LjAzNjU1NSBhIDEuMTE5MTI1NSwxLjEwOTk2NzEgMCAwIDAgMC44NzQ5NzksMC40MTc2NTQgbCA2LjQ5NjEwMTEsLTAuMDAxNSBhIDEuMTE5MTI1NSwxLjEwOTk2NzEgMCAwIDAgMC44NzQ5Nzg4LC0wLjQxNjkwNiBMIDEuMzgxODg3MiwxNS4xNDk0NTMgQSAxLjExOTEyNTUsMS4xMDk5NjcxIDAgMCAwIDEuNTk4MTk4NiwxNC4yMTAxMDQgTCAwLjE1MjEyNjU3LDcuOTI4ODE1NCBBIDEuMTE5MTI1NSwxLjEwOTk2NzEgMCAwIDAgLTAuNDUzMzk3OTQsNy4xNzU4Mzk2IEwgLTYuMzA2NTQ5Niw0LjM4MDk5NzEgQSAxLjExOTEyNTUsMS4xMDk5NjcxIDAgMCAwIC02Ljg0OTIwMTUsNC4yNzI0NjY4IFoiIGlkPSJwYXRoMzA1NSIvPiYjeGE7ICAgICAgPHBhdGggdGV4dC1hbmNob3I9InN0YXJ0IiBzdHlsZT0iY29sb3I6IzAwMDAwMDtmb250LXN0eWxlOm5vcm1hbDtmb250LXZhcmlhbnQ6bm9ybWFsO2ZvbnQtd2VpZ2h0Om5vcm1hbDtmb250LXN0cmV0Y2g6bm9ybWFsO2ZvbnQtc2l6ZTptZWRpdW07bGluZS1oZWlnaHQ6bm9ybWFsO2ZvbnQtZmFtaWx5OlNhbnM7LWlua3NjYXBlLWZvbnQtc3BlY2lmaWNhdGlvbjpTYW5zO3RleHQtaW5kZW50OjA7dGV4dC1hbGlnbjpzdGFydDt0ZXh0LWRlY29yYXRpb246bm9uZTt0ZXh0LWRlY29yYXRpb24tbGluZTpub25lO2xldHRlci1zcGFjaW5nOm5vcm1hbDt3b3JkLXNwYWNpbmc6bm9ybWFsO3RleHQtdHJhbnNmb3JtOm5vbmU7d3JpdGluZy1tb2RlOmxyLXRiO2RpcmVjdGlvbjpsdHI7YmFzZWxpbmUtc2hpZnQ6YmFzZWxpbmU7ZGlzcGxheTppbmxpbmU7b3ZlcmZsb3c6dmlzaWJsZTt2aXNpYmlsaXR5OnZpc2libGU7ZmlsbDojZmZmZmZmO2ZpbGwtb3BhY2l0eToxO2ZpbGwtcnVsZTpub256ZXJvO3N0cm9rZTpub25lO3N0cm9rZS13aWR0aDowO3N0cm9rZS1taXRlcmxpbWl0OjQ7c3Ryb2tlLWRhc2hhcnJheTpub25lO21hcmtlcjpub25lO2VuYWJsZS1iYWNrZ3JvdW5kOmFjY3VtdWxhdGUiIGQ9Ik0gLTYuODUyMzQzNSwzLjgxNzYzNzIgQSAxLjE4MTQzMDQsMS4xNzE3NjIgMCAwIDAgLTcuMzA0NDI4NCwzLjkzMjkwNCBsIC02LjE3ODc0MjYsMi45NTEyNzU4IGEgMS4xODE0MzA0LDEuMTcxNzYyIDAgMCAwIC0wLjYzOTIwNiwwLjc5NDg5MSBsIC0xLjUyMzkxNSw2LjYzMDgyODIgYSAxLjE4MTQzMDQsMS4xNzE3NjIgMCAwIDAgMC4xNjAxNzUsMC44OTg5MyAxLjE4MTQzMDQsMS4xNzE3NjIgMCAwIDAgMC4wNjczNiwwLjA5MjgxIGwgNC4yNzYwOTQsNS4zMTcyMzYgYSAxLjE4MTQzMDQsMS4xNzE3NjIgMCAwIDAgMC45MjM2MywwLjQ0MDg1OCBsIDYuODU3NjE4OCwtMC4wMDE1IGEgMS4xODE0MzA0LDEuMTcxNzYyIDAgMCAwIDAuOTIzNjMwOCwtMC40NDAxMSBsIDQuMjc0NTk2NiwtNS4zMTc5ODUgYSAxLjE4MTQzMDQsMS4xNzE3NjIgMCAwIDAgMC4yMjgyODgsLTAuOTkwOTkzIEwgMC41Mzg5NDQzOSw3LjY3NzU3MzggQSAxLjE4MTQzMDQsMS4xNzE3NjIgMCAwIDAgLTAuMTAwMjYxMDEsNi44ODM0MzEzIEwgLTYuMjc5MDAzNywzLjkzMjE1NTUgQSAxLjE4MTQzMDQsMS4xNzE3NjIgMCAwIDAgLTYuODUyMzQzNSwzLjgxNzYzNzIgWiBtIDAuMDAyOTksMC40NTUwNzg5IGEgMS4xMTkxMjU1LDEuMTA5OTY3MSAwIDAgMSAwLjU0MjY1MTcsMC4xMDg1MzAzIGwgNS44NTMxNTE2OSwyLjc5NDg0MjUgQSAxLjExOTEyNTUsMS4xMDk5NjcxIDAgMCAxIDAuMTUxOTc4MTEsNy45MjkwNjQ4IEwgMS41OTgwNTEsMTQuMjEwMzUgYSAxLjExOTEyNTUsMS4xMDk5NjcxIDAgMCAxIC0wLjIxNjMxMjMsMC45MzkzNDggbCAtNC4wNDkzMDMyLDUuMDM3MzA0IGEgMS4xMTkxMjU1LDEuMTA5OTY3MSAwIDAgMSAtMC44NzQ5Nzg5LDAuNDE2OTA2IGwgLTYuNDk2MTAwNiwwLjAwMTUgYSAxLjExOTEyNTUsMS4xMDk5NjcxIDAgMCAxIC0wLjg3NDk3OSwtMC40MTc2NTIgbCAtNC4wNTA4LC01LjAzNjU1NCBhIDEuMTE5MTI1NSwxLjEwOTk2NzEgMCAwIDEgLTAuMDYzNjIsLTAuMDg4MzIgMS4xMTkxMjU1LDEuMTA5OTY3MSAwIDAgMSAtMC4xNTE5NDIsLTAuODUxMDI4IGwgMS40NDM4MjcsLTYuMjgxMjg1MyBhIDEuMTE5MTI1NSwxLjEwOTk2NzEgMCAwIDEgMC42MDU1MjQsLTAuNzUyOTc1OCBsIDUuODUyNDAzNiwtMi43OTYzMzk1IGEgMS4xMTkxMjU1LDEuMTA5OTY3MSAwIDAgMSAwLjQyODg4MTksLTAuMTA4NTMwMyB6IiBpZD0icGF0aDMwNTQtMi05Ii8+JiN4YTsgICAgPC9nPiYjeGE7ICAgIDx0ZXh0IHhtbDpzcGFjZT0icHJlc2VydmUiIHN0eWxlPSJmb250LXN0eWxlOm5vcm1hbDtmb250LXdlaWdodDpub3JtYWw7Zm9udC1zaXplOjEwLjU4MzMzMzAycHg7bGluZS1oZWlnaHQ6Ni42MTQ1ODM0OXB4O2ZvbnQtZmFtaWx5OlNhbnM7bGV0dGVyLXNwYWNpbmc6MHB4O3dvcmQtc3BhY2luZzowcHg7ZmlsbDojZmZmZmZmO2ZpbGwtb3BhY2l0eToxO3N0cm9rZTpub25lO3N0cm9rZS13aWR0aDowLjI2NDU4MzMycHg7c3Ryb2tlLWxpbmVjYXA6YnV0dDtzdHJva2UtbGluZWpvaW46bWl0ZXI7c3Ryb2tlLW9wYWNpdHk6MSIgeD0iMTAuMDkyMjg2IiB5PSIxNi44MTE3NzUiIGlkPSJ0ZXh0MjA2NiI+PHRzcGFuIGlkPSJ0c3BhbjIwNjQiIHg9IjEwLjA5MjI4NiIgeT0iMTYuODExNzc1IiB0ZXh0LWFuY2hvcj0ibWlkZGxlIiBzdHlsZT0iZm9udC1zdHlsZTpub3JtYWw7Zm9udC12YXJpYW50Om5vcm1hbDtmb250LXdlaWdodDpub3JtYWw7Zm9udC1zdHJldGNoOm5vcm1hbDtmb250LXNpemU6Mi44MjIyMjIyM3B4O2ZvbnQtZmFtaWx5OkFyaWFsOy1pbmtzY2FwZS1mb250LXNwZWNpZmljYXRpb246J0FyaWFsLCBOb3JtYWwnO3RleHQtYWxpZ246Y2VudGVyO3dyaXRpbmctbW9kZTpsci10YjtmaWxsOiNmZmZmZmY7ZmlsbC1vcGFjaXR5OjE7c3Ryb2tlLXdpZHRoOjAuMjY0NTgzMzJweCI+dm9sPC90c3Bhbj48L3RleHQ+JiN4YTsgICAgPGcgdHJhbnNmb3JtPSJ0cmFuc2xhdGUoLTAuMTg5ODMyODksMCkiIGlkPSJnMzM0MSI+JiN4YTsgICAgICA8cGF0aCBpZD0icGF0aDExNDIiIGQ9Im0gNS41NzA5NTY0LDguMTkyODA3MSAwLDAgYyAwLDAuNjIxMTIxIDIuMDcyNTUwMSwxLjEyNDYzOSA0LjYyOTE2OTYsMS4xMjQ2MzkgMi41NTY2MjEsMCA0LjYyOTE3LC0wLjUwMzUxOCA0LjYyOTE3LC0xLjEyNDYzOSBsIDAsMy4wNDIzOTA5IGMgMCwwLjYyMTEyIC0yLjA3MjU0OSwxLjEyNDYzOCAtNC42MjkxNywxLjEyNDYzOCAtMi41NTY2MTk1LDAgLTQuNjI5MTY5NiwtMC41MDM1MTggLTQuNjI5MTY5NiwtMS4xMjQ2MzggeiIgc3R5bGU9ImZpbGw6I2ZmZmZmZjtmaWxsLXJ1bGU6ZXZlbm9kZDtzdHJva2U6bm9uZTtzdHJva2Utd2lkdGg6MC4yNjQ1ODMzMjtzdHJva2UtbGluZWNhcDpzcXVhcmU7c3Ryb2tlLW1pdGVybGltaXQ6MTAiLz4mI3hhOyAgICAgIDxwYXRoIGlkPSJwYXRoMTE0NCIgZD0ibSA1LjU3MDk1NjQsOC4xOTI4MDcxIDAsMCBjIDAsLTAuNjIxMTE5IDIuMDcyNTUwMSwtMS4xMjQ2MzcgNC42MjkxNjk2LC0xLjEyNDYzNyAyLjU1NjYyMSwwIDQuNjI5MTcsMC41MDM1MTggNC42MjkxNywxLjEyNDYzNyBsIDAsMCBjIDAsMC42MjExMjEgLTIuMDcyNTQ5LDEuMTI0NjM5IC00LjYyOTE3LDEuMTI0NjM5IC0yLjU1NjYxOTUsMCAtNC42MjkxNjk2LC0wLjUwMzUxOCAtNC42MjkxNjk2LC0xLjEyNDYzOSB6IiBzdHlsZT0iZmlsbDojZmZmZmZmO2ZpbGwtb3BhY2l0eToxO2ZpbGwtcnVsZTpldmVub2RkO3N0cm9rZTpub25lO3N0cm9rZS13aWR0aDowLjI2NDU4MzMyO3N0cm9rZS1saW5lY2FwOnNxdWFyZTtzdHJva2UtbWl0ZXJsaW1pdDoxMCIvPiYjeGE7ICAgICAgPHBhdGggaWQ9InBhdGgxMTQ4IiBkPSJtIDE0LjgyOTI5Niw4LjE5MjgwNzEgMCwwIGMgMCwwLjYyMTEyMSAtMi4wNzI1NDksMS4xMjQ2MzkgLTQuNjI5MTcsMS4xMjQ2MzkgLTIuNTU2NjE5NSwwIC00LjYyOTE2OTYsLTAuNTAzNTE4IC00LjYyOTE2OTYsLTEuMTI0NjM5IGwgMCwwIGMgMCwtMC42MjExMTkgMi4wNzI1NTAxLC0xLjEyNDYzNyA0LjYyOTE2OTYsLTEuMTI0NjM3IDIuNTU2NjIxLDAgNC42MjkxNywwLjUwMzUxOCA0LjYyOTE3LDEuMTI0NjM3IGwgMCwzLjA0MjM5MDkgYyAwLDAuNjIxMTIgLTIuMDcyNTQ5LDEuMTI0NjM4IC00LjYyOTE3LDEuMTI0NjM4IC0yLjU1NjYxOTUsMCAtNC42MjkxNjk2LC0wLjUwMzUxOCAtNC42MjkxNjk2LC0xLjEyNDYzOCBsIDAsLTMuMDQyMzkwOSIgc3R5bGU9ImZpbGw6bm9uZTtmaWxsLXJ1bGU6ZXZlbm9kZDtzdHJva2U6IzMyNmNlNTtzdHJva2Utd2lkdGg6MC4yNjQ1ODMzMjtzdHJva2UtbGluZWNhcDpidXR0O3N0cm9rZS1saW5lam9pbjpyb3VuZDtzdHJva2UtbWl0ZXJsaW1pdDoxMDtzdHJva2Utb3BhY2l0eToxIi8+JiN4YTsgICAgPC9nPiYjeGE7ICA8L2c+JiN4YTs8L3N2Zz4=;" parent="1" vertex="1">
          <mxGeometry x="654.5" y="392" width="39" height="39" as="geometry" />
        </mxCell>
        <mxCell id="HPqKZyKz4oHkFwGDCJG2-24" value="" style="shape=image;verticalLabelPosition=bottom;labelBackgroundColor=default;verticalAlign=top;aspect=fixed;imageAspect=0;image=data:image/svg+xml,PHN2ZyB4bWxucz0iaHR0cDovL3d3dy53My5vcmcvMjAwMC9zdmciIGlkPSJzdmcxMzgyNiIgdmVyc2lvbj0iMS4xIiB2aWV3Qm94PSIwIDAgMTguMDM1MzM0IDE3LjUwMDM3OCIgaGVpZ2h0PSIxNy41MDAzNzhtbSIgd2lkdGg9IjE4LjAzNTMzNG1tIj4mI3hhOyAgPGRlZnMgaWQ9ImRlZnMxMzgyMCIvPiYjeGE7ICAmI3hhOyAgPG1ldGFkYXRhIGlkPSJtZXRhZGF0YTEzODIzIj4mI3hhOyAgICAmI3hhOyAgICAgICYjeGE7ICAgICAgICBpbWFnZS9zdmcreG1sJiN4YTsgICAgICAgICYjeGE7ICAgICAgICAmI3hhOyAgICAgICYjeGE7ICAgICYjeGE7ICA8L21ldGFkYXRhPiYjeGE7ICA8ZyB0cmFuc2Zvcm09InRyYW5zbGF0ZSgtMC45OTI2MjYzOCwtMS4xNzQxODEpIiBpZD0ibGF5ZXIxIj4mI3hhOyAgICA8ZyB0cmFuc2Zvcm09Im1hdHJpeCgxLjAxNDg4ODcsMCwwLDEuMDE0ODg4NywxNi45MDIxNDYsLTIuNjk4NzI2KSIgaWQ9Imc3MCI+JiN4YTsgICAgICA8cGF0aCBzdHlsZT0iZmlsbDojMzI2Y2U1O2ZpbGwtb3BhY2l0eToxO3N0cm9rZTpub25lO3N0cm9rZS13aWR0aDowO3N0cm9rZS1taXRlcmxpbWl0OjQ7c3Ryb2tlLWRhc2hhcnJheTpub25lO3N0cm9rZS1vcGFjaXR5OjEiIGQ9Im0gLTYuODQ5MjAxNSw0LjI3MjQ2NjggYSAxLjExOTEyNTUsMS4xMDk5NjcxIDAgMCAwIC0wLjQyODg4MTgsMC4xMDg1MzAzIGwgLTUuODUyNDAzNywyLjc5NjMzOTQgYSAxLjExOTEyNTUsMS4xMDk5NjcxIDAgMCAwIC0wLjYwNTUyNCwwLjc1Mjk3NTkgbCAtMS40NDM4MjgsNi4yODEyODQ2IGEgMS4xMTkxMjU1LDEuMTA5OTY3MSAwIDAgMCAwLjE1MTk0MywwLjg1MTAyOCAxLjExOTEyNTUsMS4xMDk5NjcxIDAgMCAwIDAuMDYzNjIsMC4wODgzMiBsIDQuMDUwOCw1LjAzNjU1NSBhIDEuMTE5MTI1NSwxLjEwOTk2NzEgMCAwIDAgMC44NzQ5NzksMC40MTc2NTQgbCA2LjQ5NjEwMTEsLTAuMDAxNSBhIDEuMTE5MTI1NSwxLjEwOTk2NzEgMCAwIDAgMC44NzQ5Nzg4LC0wLjQxNjkwNiBMIDEuMzgxODg3MiwxNS4xNDk0NTMgQSAxLjExOTEyNTUsMS4xMDk5NjcxIDAgMCAwIDEuNTk4MTk4NiwxNC4yMTAxMDQgTCAwLjE1MjEyNjU3LDcuOTI4ODE1NCBBIDEuMTE5MTI1NSwxLjEwOTk2NzEgMCAwIDAgLTAuNDUzMzk3OTQsNy4xNzU4Mzk2IEwgLTYuMzA2NTQ5Niw0LjM4MDk5NzEgQSAxLjExOTEyNTUsMS4xMDk5NjcxIDAgMCAwIC02Ljg0OTIwMTUsNC4yNzI0NjY4IFoiIGlkPSJwYXRoMzA1NSIvPiYjeGE7ICAgICAgPHBhdGggdGV4dC1hbmNob3I9InN0YXJ0IiBzdHlsZT0iY29sb3I6IzAwMDAwMDtmb250LXN0eWxlOm5vcm1hbDtmb250LXZhcmlhbnQ6bm9ybWFsO2ZvbnQtd2VpZ2h0Om5vcm1hbDtmb250LXN0cmV0Y2g6bm9ybWFsO2ZvbnQtc2l6ZTptZWRpdW07bGluZS1oZWlnaHQ6bm9ybWFsO2ZvbnQtZmFtaWx5OlNhbnM7LWlua3NjYXBlLWZvbnQtc3BlY2lmaWNhdGlvbjpTYW5zO3RleHQtaW5kZW50OjA7dGV4dC1hbGlnbjpzdGFydDt0ZXh0LWRlY29yYXRpb246bm9uZTt0ZXh0LWRlY29yYXRpb24tbGluZTpub25lO2xldHRlci1zcGFjaW5nOm5vcm1hbDt3b3JkLXNwYWNpbmc6bm9ybWFsO3RleHQtdHJhbnNmb3JtOm5vbmU7d3JpdGluZy1tb2RlOmxyLXRiO2RpcmVjdGlvbjpsdHI7YmFzZWxpbmUtc2hpZnQ6YmFzZWxpbmU7ZGlzcGxheTppbmxpbmU7b3ZlcmZsb3c6dmlzaWJsZTt2aXNpYmlsaXR5OnZpc2libGU7ZmlsbDojZmZmZmZmO2ZpbGwtb3BhY2l0eToxO2ZpbGwtcnVsZTpub256ZXJvO3N0cm9rZTpub25lO3N0cm9rZS13aWR0aDowO3N0cm9rZS1taXRlcmxpbWl0OjQ7c3Ryb2tlLWRhc2hhcnJheTpub25lO21hcmtlcjpub25lO2VuYWJsZS1iYWNrZ3JvdW5kOmFjY3VtdWxhdGUiIGQ9Ik0gLTYuODUyMzQzNSwzLjgxNzYzNzIgQSAxLjE4MTQzMDQsMS4xNzE3NjIgMCAwIDAgLTcuMzA0NDI4NCwzLjkzMjkwNCBsIC02LjE3ODc0MjYsMi45NTEyNzU4IGEgMS4xODE0MzA0LDEuMTcxNzYyIDAgMCAwIC0wLjYzOTIwNiwwLjc5NDg5MSBsIC0xLjUyMzkxNSw2LjYzMDgyODIgYSAxLjE4MTQzMDQsMS4xNzE3NjIgMCAwIDAgMC4xNjAxNzUsMC44OTg5MyAxLjE4MTQzMDQsMS4xNzE3NjIgMCAwIDAgMC4wNjczNiwwLjA5MjgxIGwgNC4yNzYwOTQsNS4zMTcyMzYgYSAxLjE4MTQzMDQsMS4xNzE3NjIgMCAwIDAgMC45MjM2MywwLjQ0MDg1OCBsIDYuODU3NjE4OCwtMC4wMDE1IGEgMS4xODE0MzA0LDEuMTcxNzYyIDAgMCAwIDAuOTIzNjMwOCwtMC40NDAxMSBsIDQuMjc0NTk2NiwtNS4zMTc5ODUgYSAxLjE4MTQzMDQsMS4xNzE3NjIgMCAwIDAgMC4yMjgyODgsLTAuOTkwOTkzIEwgMC41Mzg5NDQzOSw3LjY3NzU3MzggQSAxLjE4MTQzMDQsMS4xNzE3NjIgMCAwIDAgLTAuMTAwMjYxMDEsNi44ODM0MzEzIEwgLTYuMjc5MDAzNywzLjkzMjE1NTUgQSAxLjE4MTQzMDQsMS4xNzE3NjIgMCAwIDAgLTYuODUyMzQzNSwzLjgxNzYzNzIgWiBtIDAuMDAyOTksMC40NTUwNzg5IGEgMS4xMTkxMjU1LDEuMTA5OTY3MSAwIDAgMSAwLjU0MjY1MTcsMC4xMDg1MzAzIGwgNS44NTMxNTE2OSwyLjc5NDg0MjUgQSAxLjExOTEyNTUsMS4xMDk5NjcxIDAgMCAxIDAuMTUxOTc4MTEsNy45MjkwNjQ4IEwgMS41OTgwNTEsMTQuMjEwMzUgYSAxLjExOTEyNTUsMS4xMDk5NjcxIDAgMCAxIC0wLjIxNjMxMjMsMC45MzkzNDggbCAtNC4wNDkzMDMyLDUuMDM3MzA0IGEgMS4xMTkxMjU1LDEuMTA5OTY3MSAwIDAgMSAtMC44NzQ5Nzg5LDAuNDE2OTA2IGwgLTYuNDk2MTAwNiwwLjAwMTUgYSAxLjExOTEyNTUsMS4xMDk5NjcxIDAgMCAxIC0wLjg3NDk3OSwtMC40MTc2NTIgbCAtNC4wNTA4LC01LjAzNjU1NCBhIDEuMTE5MTI1NSwxLjEwOTk2NzEgMCAwIDEgLTAuMDYzNjIsLTAuMDg4MzIgMS4xMTkxMjU1LDEuMTA5OTY3MSAwIDAgMSAtMC4xNTE5NDIsLTAuODUxMDI4IGwgMS40NDM4MjcsLTYuMjgxMjg1MyBhIDEuMTE5MTI1NSwxLjEwOTk2NzEgMCAwIDEgMC42MDU1MjQsLTAuNzUyOTc1OCBsIDUuODUyNDAzNiwtMi43OTYzMzk1IGEgMS4xMTkxMjU1LDEuMTA5OTY3MSAwIDAgMSAwLjQyODg4MTksLTAuMTA4NTMwMyB6IiBpZD0icGF0aDMwNTQtMi05Ii8+JiN4YTsgICAgPC9nPiYjeGE7ICAgIDx0ZXh0IHhtbDpzcGFjZT0icHJlc2VydmUiIHN0eWxlPSJmb250LXN0eWxlOm5vcm1hbDtmb250LXdlaWdodDpub3JtYWw7Zm9udC1zaXplOjEwLjU4MzMzMzAycHg7bGluZS1oZWlnaHQ6Ni42MTQ1ODM0OXB4O2ZvbnQtZmFtaWx5OlNhbnM7bGV0dGVyLXNwYWNpbmc6MHB4O3dvcmQtc3BhY2luZzowcHg7ZmlsbDojZmZmZmZmO2ZpbGwtb3BhY2l0eToxO3N0cm9rZTpub25lO3N0cm9rZS13aWR0aDowLjI2NDU4MzMycHg7c3Ryb2tlLWxpbmVjYXA6YnV0dDtzdHJva2UtbGluZWpvaW46bWl0ZXI7c3Ryb2tlLW9wYWNpdHk6MSIgeD0iMTAuMDE3MTgzIiB5PSIxNi44MTE3NzUiIGlkPSJ0ZXh0MjA2NiI+PHRzcGFuIGlkPSJ0c3BhbjIwNjQiIHg9IjEwLjAxNzE4MyIgeT0iMTYuODExNzc1IiB0ZXh0LWFuY2hvcj0ibWlkZGxlIiBzdHlsZT0iZm9udC1zdHlsZTpub3JtYWw7Zm9udC12YXJpYW50Om5vcm1hbDtmb250LXdlaWdodDpub3JtYWw7Zm9udC1zdHJldGNoOm5vcm1hbDtmb250LXNpemU6Mi44MjIyMjIyM3B4O2ZvbnQtZmFtaWx5OkFyaWFsOy1pbmtzY2FwZS1mb250LXNwZWNpZmljYXRpb246J0FyaWFsLCBOb3JtYWwnO3RleHQtYWxpZ246Y2VudGVyO3dyaXRpbmctbW9kZTpsci10YjtmaWxsOiNmZmZmZmY7ZmlsbC1vcGFjaXR5OjE7c3Ryb2tlLXdpZHRoOjAuMjY0NTgzMzJweCI+cG9kPC90c3Bhbj48L3RleHQ+JiN4YTsgICAgPGcgdHJhbnNmb3JtPSJ0cmFuc2xhdGUoMC4xMjc2NjY2MSwwKSIgaWQ9ImczMzQxIj4mI3hhOyAgICAgIDxwYXRoIGlkPSJwYXRoOTEwIiBkPSJNIDYuMjYxNzkxNCw3LjAzNjA4NiA5Ljg4MjYzMTcsNS45ODYwODcgMTMuNTAzNDYyLDcuMDM2MDg2IDkuODgyNjMxNyw4LjA4NjA4NyBaIiBzdHlsZT0iZmlsbDojZmZmZmZmO2ZpbGwtcnVsZTpldmVub2RkO3N0cm9rZTpub25lO3N0cm9rZS13aWR0aDowLjI2NDU4MzMyO3N0cm9rZS1saW5lY2FwOnNxdWFyZTtzdHJva2UtbWl0ZXJsaW1pdDoxMCIvPiYjeGE7ICAgICAgPHBhdGggaWQ9InBhdGg5MTIiIGQ9Im0gNi4yNjE3OTE0LDcuNDM4MTcgMCwzLjg1Mjc3OCAzLjM3MzYxMDMsMS44Njg3NDkgMC4wMTY3LC00LjcxMzE5MyB6IiBzdHlsZT0iZmlsbDojZmZmZmZmO2ZpbGwtcnVsZTpldmVub2RkO3N0cm9rZTpub25lO3N0cm9rZS13aWR0aDowLjI2NDU4MzMyO3N0cm9rZS1saW5lY2FwOnNxdWFyZTtzdHJva2UtbWl0ZXJsaW1pdDoxMCIvPiYjeGE7ICAgICAgPHBhdGggaWQ9InBhdGg5MTQiIGQ9Im0gMTMuNTAzNDYyLDcuNDM4MTcgMCwzLjg1Mjc3OCAtMy4zNzM2MSwxLjg2ODc0OSAtMC4wMTY3LC00LjcxMzE5MyB6IiBzdHlsZT0iZmlsbDojZmZmZmZmO2ZpbGwtcnVsZTpldmVub2RkO3N0cm9rZTpub25lO3N0cm9rZS13aWR0aDowLjI2NDU4MzMyO3N0cm9rZS1saW5lY2FwOnNxdWFyZTtzdHJva2UtbWl0ZXJsaW1pdDoxMCIvPiYjeGE7ICAgIDwvZz4mI3hhOyAgPC9nPiYjeGE7PC9zdmc+;" parent="1" vertex="1">
          <mxGeometry x="640" y="332" width="68" height="68" as="geometry" />
        </mxCell>
        <mxCell id="HPqKZyKz4oHkFwGDCJG2-10" value="SeleniumTestOperator (Thesis project)" style="ellipse;whiteSpace=wrap;html=1;aspect=fixed;" parent="1" vertex="1">
          <mxGeometry x="60.5" y="250" width="149" height="149" as="geometry" />
        </mxCell>
      </root>
    </mxGraphModel>
  </diagram>
</mxfile>
